<?xml version="1.0" encoding="utf-8"?>
<!-- Generator: Adobe Illustrator 24.0.1, SVG Export Plug-In . SVG Version: 6.00 Build 0)  -->
<svg version="1.1" id="Camada_1" xmlns="http://www.w3.org/2000/svg" xmlns:xlink="http://www.w3.org/1999/xlink" x="0px" y="0px"
	 viewBox="0 0 2100 2100" style="enable-background:new 0 0 2100 2100;" xml:space="preserve">
<style type="text/css">
	.st0{fill:#FEFEFE;}
	.st1{fill:#F7F7F5;}
	.st2{fill:#F8FAFA;}
	.st3{fill:#171E24;}
	.st4{fill:#E6F7FB;}
	.st5{fill:#0F171D;}
	.st6{fill:#D8D9DA;}
	.st7{fill:#AB1E24;}
	.st8{fill:#1B2A34;}
	.st9{fill:#DFE0E0;}
	.st10{fill:#5599B8;}
	.st11{fill:#DDDEDF;}
	.st12{fill:#151D23;}
	.st13{fill:#161E24;}
	.st14{fill:#181F26;}
	.st15{fill:#161D25;}
	.st16{fill:#161E25;}
	.st17{fill:#151C24;}
	.st18{fill:#181D23;}
	.st19{fill:#3989BD;}
	.st20{fill:#171C22;}
	.st21{fill:#3581AF;}
	.st22{fill:#318ABE;}
	.st23{fill:#871B1E;}
	.st24{fill:#172937;}
	.st25{fill:#21303C;}
	.st26{fill:#4B83A3;}
	.st27{fill:#2B363F;}
	.st28{fill:#33739A;}
	.st29{fill:#ADB0B3;}
	.st30{fill:#1F2327;}
	.st31{fill:#353B3D;}
	.st32{fill:#4C4D4C;}
	.st33{fill:#091C2D;}
	.st34{fill:#2C597A;}
	.st35{fill:#0D1E30;}
	.st36{fill:#327497;}
	.st37{fill:#2C556F;}
	.st38{fill:#2D3841;}
	.st39{fill:#DDE0E7;}
	.st40{fill:#E0E6EA;}
	.st41{fill:#266E9A;}
	.st42{fill:#263C4D;}
	.st43{fill:#C5C8CD;}
	.st44{fill:#133348;}
	.st45{fill:#C7B7AE;}
	.st46{fill:#C1CCD1;}
	.st47{fill:#D6D9DD;}
	.st48{fill:#60B6E2;}
	.st49{fill:#1B2124;}
	.st50{fill:#63AFD0;}
	.st51{fill:#171B1E;}
	.st52{fill:#ADC8D9;}
	.st53{fill:#C1C7CB;}
	.st54{fill:#BFC3C7;}
	.st55{fill:#CFD6DC;}
	.st56{fill:#222830;}
	.st57{fill:#3887B3;}
	.st58{fill:#3B87B3;}
	.st59{fill:#E43339;}
	.st60{fill:#286F95;}
	.st61{fill:#2E4758;}
	.st62{fill:#D74548;}
	.st63{fill:#CB1D28;}
	.st64{fill:#DE202F;}
	.st65{fill:#C91E26;}
	.st66{fill:#CE4A4C;}
	.st67{fill:#50ABDA;}
	.st68{fill:#2C6D8F;}
	.st69{fill:#499AC4;}
	.st70{fill:#D64147;}
	.st71{fill:#B31D25;}
	.st72{fill:#323F45;}
	.st73{fill:#449DCA;}
	.st74{fill:#B52B36;}
	.st75{fill:#931C20;}
	.st76{fill:#235874;}
	.st77{fill:#24475B;}
	.st78{fill:#203342;}
	.st79{fill:#B42C3D;}
	.st80{fill:#9EDAF4;}
	.st81{fill:#1F3E50;}
	.st82{fill:#6EC1E5;}
	.st83{fill:#993739;}
	.st84{fill:#DC7B7E;}
	.st85{fill:#4F4248;}
	.st86{fill:#F0D4D7;}
	.st87{fill:#C95356;}
	.st88{fill:#327CAA;}
	.st89{fill:#F4FAFB;}
	.st90{fill:#317096;}
	.st91{fill:#F3F5F6;}
	.st92{fill:#6595AB;}
	.st93{fill:#E0F1F6;}
	.st94{fill:#34789F;}
	.st95{fill:#437A8F;}
	.st96{fill:#E4EFF5;}
	.st97{fill:#2D5F7A;}
	.st98{fill:#517A90;}
	.st99{fill:#12354E;}
	.st100{fill:#216D9D;}
	.st101{fill:#D0D6DC;}
	.st102{fill:#C0CDD4;}
	.st103{fill:#C1C8CF;}
	.st104{fill:#B8828A;}
	.st105{fill:#AC8D96;}
	.st106{fill:#5E3A3C;}
	.st107{fill:#728693;}
	.st108{fill:#4A585F;}
	.st109{fill:#6999B4;}
	.st110{fill:#234B66;}
	.st111{fill:#BDC4CA;}
	.st112{fill:#B65B6A;}
	.st113{fill:#D0B2BC;}
	.st114{fill:#337EAD;}
	.st115{fill:#27658B;}
	.st116{fill:#426F8C;}
	.st117{fill:#4C7797;}
	.st118{fill:#EBEFF3;}
	.st119{fill:#78181C;}
</style>
<g>
	<path class="st0" d="M0.33,1050.19C0.33,706.03,0.42,361.86,0,17.69C-0.02,4.3,1.36-0.01,16.67,0
		C705.78,0.52,1394.9,0.49,2084.01,0.11c13.28-0.01,15.99,3.21,15.99,16.15c-0.36,689.03-0.34,1378.06-0.07,2067.09
		c0,12.02-1.29,16.61-15.53,16.6c-689.82-0.46-1379.63-0.48-2069.45,0.05c-15.55,0.01-14.83-6.08-14.82-17.32
		C0.38,1738.52,0.33,1394.36,0.33,1050.19z"/>
	<path class="st1" d="M1616.65,218.83c38.68,8.9,78.01,16.33,113.21,35.58c76.21,41.69,127.34,103.78,151.94,187.82
		c12.48,42.63,15.38,86.17,16.09,129.89c1.06,66.11,0.27,132.26,0.27,198.39c0.01,266.88,1.74,533.78-0.88,800.63
		c-0.96,97.78-42.31,178.83-122.03,240.48c-40.65,31.44-86.16,47.55-133.77,59.82c-16.98,4.37-36.32,1.08-54.21,5.53
		c-6.53-3.79-13.68-2.01-20.53-2.01c-334.66-0.1-669.32-0.1-1003.99,0c-6.85,0-14-1.75-20.54,1.98
		c-95.43-8.15-174.88-47.28-235.63-122.13c-33.51-41.29-58.67-87.31-62.09-141.01c-3-47.17-7.47-94.48-4.93-141.94
		c0.63-11.84,0.1-23.75,0.1-35.62c7.67-3.29,14.56-1.33,21.06,3.12c-3.35,12.6-14.6,21.91-12.1,37.44
		c2.13,13.25,6.28,15.39,17.23,9.7c17.78-9.24,36.45-16.68,53.64-27.15c10.02-6.1,20.35-11.84,32.57-12.37
		c3.39,0.78,6.29,2.59,8.81,4.87c9.3,8.42,15.21,7.13,18.06-5.65c0.88-3.97,3.2-7.69,8.65-5.93c6.24,31.99,13.7,62.95-5.63,94.66
		c-19.17,31.45-13.36,66.02-1.3,99.17c2.29,6.3,5.96,14.57,13.82,14.01c9.74-0.69,7.49-10.47,8.01-16.77
		c2.38-28.79,14.9-53.9,29.34-77.78c48.77-80.63,106.97-153.23,181.21-212.45c25.05-19.98,48.67-41.9,72.63-63.26
		c21.05-18.77,43.68-34.77,68.4-48.02c14.45-7.74,26.49-17.96,35.6-31.7c24.48-36.94,61.45-62.97,86.86-99.13
		c2.03-2.88,5.51-4.19,9.25-3.95c6.37,6.11,14.78,8.68,22.36,12.73c7.08,18.59,5.01,38.43,7.56,57.64
		c1.42,10.68-6.56,18-14.78,23.85c-30.85,21.98-41.63,54.99-49.39,89.63c-1.22,5.44-2.43,11.59,2.61,15.66
		c5.59,4.52,10.63-0.26,15.35-2.69c37.49-19.38,68.82-48.15,92.19-81.24c47.04-66.61,111.96-110.51,177.37-154.75
		c42.28-28.59,83.99-58,126.41-86.37c21.2-14.18,34.66-32.46,30.52-59.66c-3.39-32.34-25-51.18-51.14-64.57
		c-66.29-33.94-136.86-47.27-211.15-39.2c-41.24,5.7-79.82,19.16-116.05,39.56c-6.67,3.76-13.21,8.04-21.5,6.24
		c-14.44-9.09-2.12-15.87,3.03-21.06c23.49-23.73,52.12-40.08,83.3-50.96c19.12-6.67,35.02-16.33,48.67-31.07
		c24.04-25.96,56.27-44.32,72.5-80.37c-28.3,2.71-55.61-1.06-82.24-9.55c-60.96-19.44-91.05-65.9-108.12-123.66
		c-1.39-4.69-2.18-10.71,2.72-13.34c6.62-3.56,9.83,2.8,13.04,7.08c3.36,4.47,5.37,9.78,8.08,14.67
		c30.92,55.81,81.14,85.77,140.63,100.63c37.64,9.4,52.61,0.59,73.33-32.61c3.34-5.35,6.25-10.9,8.65-16.73
		c5.36-13.46,9.87-27.25,15.5-40.59c5.7-13.49,11.09-8.83,16.22,0.52c2.42,6.19,2.5,12.7,2.57,19.2c0.16,21.5-5.61,41.5-16.52,59.84
		c-6.06,10.19-4.28,17.64,3.81,25.92c13.96,14.28,30.75,24.21,48.19,32.99c23.74,11.96,49.07,20.13,74.15,28.85
		c18.47,6.42,33.47,2.52,47.56-11.5c27.77-27.65,47.59-59.87,60.2-96.78c18.16-34.09,21.78-72.15,29.85-108.98
		c26.79-40.35,27.16-84.77,19.38-130.17c-1.55-9.03-2.6-19.95-15.09-22.26c-4.14-0.68-7.73-2.43-10.67-5.42
		c-5.23-6.34-6.61-14.44-9.91-21.69c-2.03-4.48-3.36-11.39-11-5.99c-3.35,4.26-5,10.29-11.62,10.99
		c-12.09,1.82-6.79,10.08-5.43,16.05c4.42,19.36,2.76,38.89,2.18,58.35c-0.32,10.72-2.95,21.99-14.59,25.51
		c-11.32,3.43-14.91-7.58-20.18-14.58c-4.17-5.54-7.89-11.69-21.38-11.92c15.77,25.09,21.96,52.4,39.38,73.49
		c13.23,16.01,13.47,30.67,5.32,48.06c-10.52,22.49-26.83,40.68-42.59,59.27c-18.77,22.14-34.29,45.72-38.2,75.35
		c-0.62,4.69-0.81,11.54-6.31,11.96c-7.42,0.57-6.68-7.05-8.03-12.1c-0.39-5.26-0.33-10.5,0.1-15.75
		c8.71-38.18,1.94-53.89-34.49-70.58c-15.62-7.15-22.76-17.03-27.08-33.43c-12.79-48.52-61.12-64.89-101.24-35.67
		c-4.41,3.21-9.03,8.9-14.56,5.13c-6.94-4.72-2.51-11.71,0.5-16.64c11.37-18.69,26.63-33.92,45-45.71
		c7.27-4.67,15.62-4.33,24.25-2.42c24.18,5.36,24.25,5.06,28.6-18.43c0.87-3.95,2.58-7.57,4.34-11.17
		c1.34-14.64,10.44-25.17,19-35.94c-2.62-8.9-7.45-16.99-9.22-26.17c-0.71-7.66,1.45-15.46-1.23-23.04
		c-1.81-10.64-2.08-21.09,3.55-30.85c1.47-2.74,3.12-5.39,4.63-8.11c13.44-31.4-2.44-57.36-38.06-61.88
		c-11.62-1.47-23.98-0.09-33.25-9.6c-6.34-8.55-12.94-17.06-1.91-27.32c-19.16-6.5-35.72,1.78-52.66,1.89l-0.09-0.1
		c33.71-14.88,68.79-10.68,102.95-4.36c19.59,3.63,41,8.86,52.39,29.37c3.51,3.15,7.85,2.37,11.96,2.37
		c109.5,0.04,219,0.03,328.5,0.01C1608.66,220.89,1612.96,221.54,1616.65,218.83z"/>
	<path class="st1" d="M1058.46,223.09c6.67,9.99,3.06,19.04-1.56,28.7c-3.12,6.51-11.75,13.25-2.6,21.55
		c5.22,8.04,8.94,1.28,13.02-1.36c17.35-11.21,34.31-23.29,56.09-24.36c5.22,0.84,10.49,1.61,11.59,8.23
		c-5.95,10.85-17.48,13.3-27.44,17.95c-20.54,9.6-36.49,23.31-42.74,46.01c-0.98,3.58-3.88,6.83,0.01,11.29
		c14.4,16.5,13.33,33.64-2.43,51.28c-13.42,15.02-39.08,18.41-55.6,7.32c-2.32-1.56-4.47-3.39-6.43-5.38
		c-39.99-40.56-87.4-41.43-137.97-25.98c-11.61,3.55-21.09,12.08-32.24-6.82c-7.3-12.38-31.22-9.32-47.36-7.9
		c-28.49,2.5-56.73,7.4-85.53,6.79c-16.07-0.34-26.65,10.57-37.58,20.56c-54.19,49.53-96.57,108.39-134.34,170.76
		c-19.9,32.85-44.59,62.79-59.95,98.36c-2.75,6.38-10.28,12.95-1.62,20.45c2.43,1.73,4.32,3.86,5.33,6.69
		c2.05,8.57-3.31,15.26-5.75,22.71c-2.96,9.04,3.83,5.74,7.83,5.93c3.21,0.5,5.03,2.45,5.88,5.47c1,6.32-2.74,12.12-2.5,19.78
		c9.72-2.41,10.25-13.52,17.89-16.43c3.34,0.29,5.35,2.4,7.01,5c6.49,9.2,10.45,2.05,14.33-2.49c8.27-9.68,13.08-21.45,18.88-32.6
		c6.48-12.45,13.3-24.74,23.72-34.37c12.96-11.99,19.46-10.13,24.99,6.57c2.76,8.33,3.16,17.81,12.76,25.06
		c1.86-22.86,3.11-44.12-4.79-64.79c-12.63-33.06-6.58-60.09,20.47-84.89c24.36-22.32,51.29-41.01,76.7-61.77
		c7.71-6.3,16.09-11.52,11.24-23.94c-3.49-8.93,2.55-11.23,9.86-10.87c7.08,0.35,14.03,2.55,19.87,6.25
		c37.75,23.93,80.71,25.68,123.16,28.91c33.65,2.56,35.22,4.52,20.84,36.02c-2.33,5.1-4.54,10.23-8.29,14.52
		c-7.11,5.93-11.15,13.92-15.01,22.08c-2.38,5.02-4.86,11.14-9.95,12.93c-27.3,9.59-25.99,32.33-26.17,54.59
		c-0.06,7.61,0.19,15.22-0.43,22.81c-3.6,20.55-20.27,30.92-34.29,43.06c-79.82,69.12-165.29,130.01-260.18,177.03
		c-4.37,2.17-8.17,5.33-12.33,7.88c-49.28,26.22-100.04,49.37-150.72,72.7c-29,11.6-57.91,23.39-86.48,36.04
		c-7.41,3.28-15.19,7.88-23.57,1.94c-0.08-99.35-0.17-198.7-0.24-298.05c-0.03-46.06,0.4-92.12-0.11-138.18
		c-0.62-56.01,16.41-106.9,45.22-153.87c48.18-78.54,115.88-130.14,208.25-146.35c8.16-1.43,16-4.66,23.99-7.05
		c7.25,3.89,15.08,1.96,22.61,1.97c164.03,0.13,328.07,0.06,492.1,0.2C1043.41,221.03,1051.27,218.93,1058.46,223.09z"/>
	<path class="st2" d="M806.96,627.13c-0.42-22.07-2.39-44.19,3.58-65.96c1.1-4,0.76-10.03,5.1-10.37
		c23.4-1.8,27.84-21.28,36.57-37.13c1.42-2.58,5.79-3.52,8.8-5.22c4.05,4.76,3.79,10.53,2.86,15.96
		c-8.18,47.84-3.11,96.15-5.29,144.18c-1.42,27-7.36,53.04-17.12,78.23c-4.93,13.11-8.73,26.66-14.53,39.47
		c-6.62,12-10.16,25.03-12.74,38.38c-5.29,20.25-0.45,39.8,4.03,59.37c3.21,13.15,7.28,25.87,17.67,35.46
		c23.95,26.02,54.62,36.57,88.86,41.05c53.55,7.01,103.53-5,152.5-24.84c9.52-3.86,18.98-9.32,30.01-5.52
		c3.12,1.82,4.1,4.72,4.06,8.11c-6,15.51-20.45,23.79-30.79,35.59c-5.49,6.26-10.42,12.84-14.9,19.82
		c-19.18,28.13-36.66,57.46-59.59,82.91c-5.13,5.69-9.83,11.73-16.6,15.68c-13.62,7.25-28.48,5.69-42.92,5.21
		c-14.47-0.48-27.49,2.23-38.96,11.26c-9.57-0.66-22.34,3.83-21.66-13.4c-4.96-9.66,2.74-15.72,6.96-22.29
		c12.03-18.73,24.09-37.41,34.13-57.33c4.45-8.82,6.71-14.57-7.78-15.61c-44.55-3.2-84.37-17.49-112.44-54.81
		c-8.38-11.13-14.04-8.66-19.16,2.38c-37.1,49.03-54.81,106.06-68.26,164.86c-2.95,12.88-4.82,26.08-10.89,38.08
		c-3.24,4.77-7.72,7.27-13.5,7.41c-59.29,3.03-100.78,35.7-134.64,80.99c-2.49,3.34-4.29,7.17-6.58,10.68
		c-16.95,30.94-26.94,65.08-45.15,95.56c-12.14,20.33-25.86,39.13-41.29,56.89c-12.84,10.43-28.31,13.68-44.11,15.27
		c-16.41,1.65-30.5,6.31-37.51,22.96c-0.76,1.11-1.61,2.18-2.27,3.35c-3.8,6.65,3.9,18.55-7.36,20.97
		c-12.02,2.59-17.54-7.88-23.23-16.36c-6.7-21.23,0.04-40.67,19.87-57.43c17.09-7.4,33.54-16.48,52.44-19.11
		c10.53-1.46,16.97-8.66,22.77-18.36c-25.05,14.25-49.91,26.28-75.2,37.45c-28.29,20.97-62.01,31.66-92.39,48.68
		c-5.71,3.2-12.86,6.32-19.63,0.85c-7.36,0.35-14.54-0.2-21.03-4.22c0-34.03-0.11-68.06,0.08-102.09c0.04-6.7-2.14-14.05,3.78-19.72
		c34.51-10.82,65.98-28.6,98.81-43.27c36.02-14.1,70.19-32.1,104.69-49.4c29.28-15.51,58.47-31.19,85.46-50.5
		c8.62-6.17,18.07-9.94,27.86-13.32c34.69-20.12,69.29-40.31,102.4-63.04c14.97-10.27,11.55-29.24,21.8-41.41
		c1.33-4.11,6.61-7.5,3.26-12.22c-0.86-1.21-3.85,2.59-5.86,4.18c-30.86,25.02-65.46,44.2-99.95,63.28
		c-22.43,12.41-45.16,24.3-67.19,37.45c-23.21,14.7-49.27,23.87-73.01,37.55c-44.47,21.17-89.03,42.17-133.47,63.39
		c-7.8,4.78-16.37,7.92-25.11,10.14c-18.3,4.63-33.4,12.77-39.67,32.07c-8.46-20.37-0.74-40.42,1.19-60.58
		c12.89-9.83,28.3-14.82,42.88-21c61.47-26.06,121.43-55.27,181.11-85.08c17.52-7.55,32.29-20.1,49.85-27.58
		c45.08-22.7,87.46-49.87,129.22-78.06c12.98-8.1,25.51-16.88,38.03-25.68c23.72-16.67,44.84-35.54,52.07-65.7
		c-33.5,21.91-68.14,43.2-102.82,64.44c-43.1,25.69-86.1,51.54-130.21,75.49c-14.97,6.04-28.44,14.99-42.88,22.06
		c-59.75,30.48-120.51,58.81-182.71,83.86c-17.98,7.24-33.65,14.13-30.98,37.59c0.39,3.4-1.71,6.69-4.79,8.85
		c-7.28-29.82-6.12-59.23,4.34-88.18c7.54,5.95,15,3.84,23.03,0.62c13.32-5.35,26.34-11.35,39.48-17.13
		c11.72-2.6,20.06-12.73,32.15-14.52c23.96-10.26,47.6-21.23,71.15-32.37c41.88-19.99,83.02-41.4,122.83-65.27
		c46.47-23.63,90.19-51.81,133.36-80.88c24.77-15.49,48.22-32.9,72.25-49.47c10.85-7.48,14.17-18.45,16.67-30.13
		c1.6-7.48,2.7-15.08,5.78-23.85c-33.09,27.77-67.76,51.01-103.19,73.16c-46.17,28.56-91.76,58.08-139.66,83.76
		c-42.96,23.15-87.18,43.83-130.34,66.58c-21.03,7.88-41.42,17.3-62.16,25.86c-12.88,5.55-25.37,12-38.5,16.98
		c-15.28,7.06-33.93,8.44-43.16,25.69c-9.64-17.19-7.76-36.03-7.85-54.59c1.5-1.33,3.24-2.11,5.22-2.36
		c26.06-1.71,46.58-18.13,70.15-26.47c28.86-12.25,58.13-23.57,85.86-38.36c53.44-22.81,103.98-51.27,154.7-79.36
		c28.12-14.76,55.09-31.43,81.42-49.16c37.15-21.88,70.38-49.22,104.69-75.07c15.99-9.43,26.17-25.56,41.33-35.96
		c6.35-7.27,22.78-12.75-0.09-22.1c-15.66-6.4,0.4-15.19,2.79-22.87c18.15-16.42,27.21-37.06,29.84-61.23
		C816.42,633.3,816.95,627.56,806.96,627.13z"/>
	<path class="st3" d="M243.47,1217.93c-7.43-33.5,13.33-43.54,39.93-54.48c60.36-24.85,119.18-53.45,178.63-80.52
		c6.1,13.46,15.11,26.33,8.48,42.34c-54.71,33.13-113.69,57.54-171.93,83.35c-17.45,7.73-33.54,19.83-53.86,20.13
		C244.3,1225.14,243.88,1221.54,243.47,1217.93z"/>
	<path class="st4" d="M242.99,1054.12c-1.11,0.04-2.22,0.06-3.33,0.07c1.03-25.22-3.45-50.76,4.28-75.6
		c36-15.14,73.7-26.17,108.13-45.07c43.42-14.96,84.52-35.3,126.09-54.54c44.33-17.24,83.87-44.02,126.97-63.71
		c9.46-4.32,18.16-10.5,28.79-12.08c4.48,0.06,8.38,1.11,9.99,5.98c-5.44,18.37-24.46,20.29-36.73,30.4
		c-20.57,14.37-44.2,23.49-64.88,37.7c-53.14,26.46-105.59,54.32-159.25,79.75c-32.3,14.61-65.91,26.22-97.44,42.59
		c-4.89,2.5-9.95,4.82-15.25,6.09c-14.79,3.56-22.16,11.98-21.16,27.83C249.67,1040.75,250.39,1048.9,242.99,1054.12z"/>
	<path class="st5" d="M1121.07,252.01c-26.36,5.35-47.67,19.89-69.59,39.8c1.22-8.03,2.02-13.25,2.82-18.48
		c19.43-37.63,54.32-48.17,92.57-52.76c5.49-0.66,11.01-1.03,16.52-1.54c16.78,3.56,34.48,1.06,50.75,8.03
		c32.5,13.92,42.03,40.91,23.51,66.99c-15.33-1.16-9.77-18.23-18.62-24.34c-13.92-20.2-33.59-26.31-56.69-21.92
		C1148.64,250.41,1134.55,248.04,1121.07,252.01z"/>
	<path class="st6" d="M542.22,1876.94c6.27-6.73,14.47-3.89,21.79-3.9c333.84-0.17,667.68-0.18,1001.51-0.05
		c7.32,0,15.53-2.83,21.75,3.99C1238.92,1876.96,890.57,1876.95,542.22,1876.94z"/>
	<path class="st7" d="M243.53,1289.33c-2.52-17.78,4.55-27.76,22.64-31.9c13.91-3.18,27.1-9.52,40.61-14.45
		c9.72-0.5,8.79,7.56,9.02,12.86c0.5,11.98,3.47,18.77,17.4,14.11c4.21-1.41,10.03-1.64,11.19,5.42
		c-27.7,12.98-55.26,26.27-83.22,38.66c-5.04,2.24-11.65,10.32-17.63,0.39C245.32,1306.06,245.63,1297.7,243.53,1289.33z"/>
	<path class="st8" d="M311.04,1117.3c-17.02,7.87-34.03,15.75-51.05,23.62c-12.96,5.99-11.35-3.91-12.17-11.16
		c2.82-7.03,1.77-14.01-0.31-20.97c-1.67-10.92,2.22-17.91,13.51-20.68c9.79-2.4,19.36-5.7,29.02-8.6
		C301.54,1089.61,311.64,1100.48,311.04,1117.3z"/>
	<path class="st9" d="M1058.46,223.09c-171.14-0.04-342.28-0.03-513.42-0.28c-7.98-0.01-16.9,3.22-23.85-3.96
		c169.45-0.04,338.9-0.04,508.35-0.21c10.32-0.01,20.9,2.02,30.93-2.76c2.43-1.16,3.77,1.18,2.61,3.27
		C1062.16,220.81,1060.04,221.8,1058.46,223.09z"/>
	<path class="st10" d="M353.37,937.44c-34.24,19.66-69.54,36.51-109.42,41.15c0.05-5.41,0.1-10.83,0.14-16.24
		c37.97-10.04,71.47-31.57,109.1-42.49C364.5,925.6,355.79,931.55,353.37,937.44z"/>
	<path class="st11" d="M1616.65,218.83c-5.45,6.47-12.93,4.02-19.58,4.03c-104.52,0.14-209.04,0.13-313.55-0.02
		c-6.64-0.01-14.16,2.42-19.44-4.32C1381.6,218.62,1499.13,218.73,1616.65,218.83z"/>
	<path class="st1" d="M1108.82,193.61c-6.6,5.52-15.59,7.56-19.99,16.56c-2.69,5.51-10.09,6.17-13.93,0.75
		c-4.46-6.29,2.76-7.61,6.49-9.87c8.38-5.08,17.19-8.81,27.35-7.54C1108.74,193.51,1108.82,193.61,1108.82,193.61z"/>
	<path class="st12" d="M1223.67,269.11c13.12,3.58,1.77,20.87,13.99,24.95c-1.04,1.45-2.08,2.9-3.11,4.35
		c-17.51,2.9-29.89-13.47-46.89-12.47c-13.6-2.05-27.19-3.86-39.87,1.16c-3.37,0.96,1.28,4.13-0.45,1.93
		c-0.52-0.67-0.06-1.15,1.34-1.6c8.66-2.77,17.45-4.33,26.59-3.19c8.36,3.29,20.74-0.55,23.19,13.13
		c-30.02,24.49-39.08,54.08-22.31,90.25c1.35,2.91-0.28,6.78-1.66,9.99c-10.74,6.74-9.46,13.45,0.14,20.07
		c12.83,10.86,25.97,19.83,42.94,7.75c0.13,28.24-7.07,33.74-33.92,24.19c-9-3.2-16.92-2.81-23.48,2.86
		c-17.76,15.37-36.45,30.17-45.59,52.7c2.24,3.32,4.54,1.55,5.45,0.21c32.96-48.78,110.5-15.79,118.4,38.51
		c1.9,13.06,7.04,19.11,19.3,22.67c21.32,6.2,34.42,22.12,45.24,40.86c8.01,13.87-5.79,23.06-5.35,35
		c-12.28-0.03-10.78-12.32-16.39-18.3c-12.98-25.86-38.28-33.56-62.72-42.52c-4.35-5.69-2.65-13.12-5.56-19.24
		c-1.22-3.98-2.37-7.98-3.49-11.99c-8.39-29.99-29.74-42.34-60.31-34.86c-10.23,2.5-19.41,7.36-28.2,13.05
		c-3.59,1.98-7.31,3.62-11.21,4.89c-8.26,2.72-16.38,2.92-24.27-1.32c-22.72-38.53-51.55-72.57-79.56-107.2
		c-21.29-26.33-46.87-45.57-81.59-50.96c-21.71-3.37-41.47,2.58-61.36,9.32c-8.56,1.99-17.1,4.08-25.56,8.13
		c15.45,6.15,30.74,11.09,46.01,16.11c44.4,16.8,81.17,42.79,103.55,86.08c3.77,10.21-1.01,15.93-10.26,19.17
		c-7.99,2.8-9.09,8.58-5.41,14.95c16.21,28.01,33.57,54.99,67.4,64.7c16.61,7.6,30.55-3.19,45.55-6.62
		c16.05,3.17,9.13,20.36,17.38,28.26c18.06,6.16,31.31-2.38,44.42-13.3c4.61-3.84,9.37-14.34,17.98-4.3
		c-21.05,53.21-52.1,68-105.3,49.24c-59.36-20.93-107.82-54.94-133.87-114.84c-1.43-3.28-2.55-6.48-6.4-7.59
		c10.61,89.92,87.29,153.5,198.95,137.85c-15.44,22.66-30.52,43.99-50.22,61.99c-33.17,30.3-65.37,60.99-110.43,74.47
		c-24.94,7.46-43.38,27.22-62.41,44.63c-2.49,2.28-5.35,5.1,0.03,7.6c-0.98,14.23,5.92,23.4,18.57,28.84
		c12.84,5.52,22.59-0.26,31.56-8.78c10.65-6.74,23.47-7.49,34.68-12.71c15.16-5.22,30.95-8.09,46.33-12.53
		c70-9.04,138.38-5.22,203.67,24.84c13.41,6.18,26.89,12.65,36.47,23.65c9.68,11.12,20.54,17.55,34.99,18.43
		c5.27,28.15-8.84,46.29-30.66,61.13c-63.42,43.16-126.62,86.63-189.85,130.06c-40.44,27.78-76.25,59.75-104.85,100.6
		c-27.38,39.11-63.66,70.16-105.12,94.51c-5.88,3.45-12.13,8.64-19.18,3.86c-7.46-5.05-7.35-13.96-5.42-21.04
		c10.08-36.91,17.87-75.33,54.68-97.38c8.38-5.02,14.13-12.49,11.05-22.56c-5.24-17.17-2.38-34.67-3.69-51.97
		c1.38-14.1,10.1-17.13,22.83-16.75c20.51,0.61,41.73,5.8,60.88-6.66c3.44,8.95,6.99,12.91,16.73,4.86
		c20.55-16.97,36.67-37.99,53.43-58.1c25.62-30.73,54.9-56.71,87.69-79.15c12.61-6.67,25.13-13.61,40-15.96
		c-4.57-0.62-8.65,1.18-12.77,0.55c-7.9-0.23-14.78-2.85-19.6-9.33c-3.73-5.01-8.04-7.15-14.05-4.3c-11.22,3.27-21.57,10.08-34,8.35
		c-17.12,0.3-31.18,9.86-46.5,15.53c-58.9,21.81-118.61,28.17-179.46,9.28c-20.81-6.46-39.24-17.21-51.68-36.08
		c-2.22-30.23-3.24-59.98,0.87-90.65c4.77-35.57,23.21-53.82,54.93-63.44c3.93-1.19,7.44-3.75,11.41-4.77
		c4.36-0.23,7.3-0.23,3.77-6.47c-6.62-11.72-13.98-23.31-16.14-37.05c-0.34-3.47,0.24-6.92,0.34-10.37
		c0.3-10.03,16.46-15.54,8.01-27.84c-5.49-8-11.79-15.42-17.49-23.97c-9.35,3.35-10.7,19.04-23.97,15.69
		c-0.05-37.33-0.95-74.69,0.24-111.98c0.55-17.31,5.19-34.48,7.97-51.72c5-12.79,17.37-29.45,13.19-37.43
		c-5.6-10.68-25.45-5.47-38.85-5.47c-45.28,0.02-85.86-15.28-125.55-34.62c-1.74-0.85-3.58-1.63-5.47-1.99
		c-1.29-0.25-2.74,0.29-6.18,0.75c18.95,15.04,7.64,23.67-5.17,32.95c-29.95,21.72-59.28,44.1-86.12,69.85
		c-19.06,18.29-25.03,38.22-15.25,62.13c10.09,24.68,9.26,50.53,10.56,76.24c0.2,4.06,1.11,8.87-4,10.67
		c-4.67,1.65-7.96-1.5-10.64-4.78c-7.33-8.98-10.7-19.36-10.99-30.94c-0.1-3.82,1.18-8.97-3.95-10.65
		c-4.67-1.53-7.95,2.14-10.71,5.1c-10.08,10.8-18.11,23.06-24.03,36.59c-6.49,14.82-15.16,28.27-25.16,40.88
		c-3.5,4.41-8.38,9.47-13.91,7.49c-7.12-2.55-2.1-9.66-2.64-14.75c2.16-15.66,14.95-26.11,19.33-39.9
		c-6.32,12.1-12.89,24.91-22.57,35.73c-3.22,6.13-6.4,12.3-9.69,18.39c-2.88,5.33-7.21,9.57-13.34,6.56
		c-7.01-3.44-3.03-9.54-1.38-14.49c1.74-5.23,4.09-10.26,6.17-15.37c6.67-19.47,18.77-36.24,25.91-53.27
		c-9.74,14.97-14.4,35.32-29.31,49.53c-4.04,4.65-8.54,12.03-14.84,8.33c-7.24-4.24-0.63-10.98,1.41-16.31
		c2.7-7.08,6-13.93,9.04-20.88c1.12-6.68,3.75-12.73,7.59-18.34c-3.51,5.19-6.09,11.4-13.24,12.74c-18.28,6.45-9.08-7.2-7.32-11.5
		c9.25-22.63,21.57-43.76,35.32-63.95c42.38-62.25,77.37-129.76,130.89-184.09c8.34-8.46,16.87-16.77,24.73-25.66
		c20.29-22.95,42.99-36.63,76.19-33.87c30.96,2.57,62.02-10.29,93.69-4.1c5.45,1.07,10.98,1.74,16.48,2.6
		c13.53,2.12,13.32,8.19,3.69,18.16c26.45-6.42,50.39-16.43,76.93-17.52c33.63-1.38,63.02,7.8,85.72,31.33
		c15.46,16.02,30.36,20.21,50.18,12.69c19.26-7.31,20.71-24.49,23.17-41.11c0.5-3.38,0.07-6.9,0.07-10.38
		c-8-2.72-6.53,10.79-14.29,7.88c-2.01-34.66,17.72-63.2,53.94-77.95c7.74-3.15,15.52-6.19,23.28-9.29
		c26.31-16.92,51.16-6.27,75.93,4.19C1214.8,262.73,1217.72,268.43,1223.67,269.11z"/>
	<path class="st13" d="M1456.24,705.25c-24.75,43.98-49.7,87.85-74.19,131.98c-14.38,25.92-28.03,52.24-44.51,83.07
		c-5.3-29.69-6.71-54.96-27.06-73.02c-7.43-6.6,1.13-12.72,4.05-18.08c32.46-59.52,74.67-112.54,112.88-168.23
		c32.83-47.85,69.16-92.68,110.37-133.69c70-69.67,149.63-118.18,252.71-117.49c-5.17,8.61-14.99,13.28-23.5,16.49
		c-93.78,35.34-137.28,110.8-162.68,201.16c-2.63,9.36-6.13,18.48-9.23,27.71c-17.59-4.24-29.09,3.49-37.29,18.48
		c-8.27,15.12-1.78,28.16,5.5,40.91c3.1,5.43,12.69,7.72,7.54,16.84c-14.39,53.82-29.36,107.48-43.03,161.48
		c-20.85,82.36-44.17,164.01-68.6,245.35c-4.2,13.99-2.33,19.1,13.41,17.96c30.67-2.23,61.19-4.94,91.47-10.6
		c17.55-3.28,32.45-11.37,46.88-23.77c-4.72,43.31-25.61,66.24-64.31,71.51c-29.76,4.05-59.58,7.84-89.48,10.57
		c-11.86,1.08-15.24,5.77-18.38,17.21c-18.79,68.55-39.29,136.63-58.76,204.99c-3.09,10.85-6.42,12.98-16.94,7.06
		c-27.94-15.72-56.39-30.59-85.13-44.8c-9.25-4.57-9.46-9.38-7.04-18.1c10.98-39.67,24.74-78.39,38.33-117.19
		c11.19-31.94,10.87-32.31-22.1-30.02c-36.23,2.52-72.46,4.89-108.38,10.9c-7.85,1.31-11.82,3.55-15.5,10.76
		c-11.71,22.98-24.76,45.27-36.99,67.99c-2.97,5.51-3.22,10.98-13.04,7.36c-25.66-9.45-52.88-12.56-79.99-15.4
		c-12.01-1.26-15.72-3.01-6.98-16c38.13-56.67,75.73-113.75,107.61-174.3c4.29-8.15,8.3-15.99,16.61-20.88
		c49.99-29.4,97.74-61.98,141.79-101.08c2.65,10.98-4.07,18.03-8.12,25.66c-24.51,46.23-49.15,92.38-74.09,138.38
		c-7.53,13.89-9.53,21.32,11.66,20.65c32.18-1.02,64.24-2.98,96.35-4.98c11.18-0.7,14.93-4.64,17.93-15.18
		c31.68-111.03,63.94-221.89,96.36-332.71c10.72-36.65,22.36-73.03,33.58-109.54c0.28-9.98,2.5-19.35,8.57-27.53
		c7.97-15.88,14.7-32.44,23.5-43.29c3.2-6.03-1.67-5.67,1-4.83c-5.47,13.9-15.37,25.43-20.98,39.26
		C1471.81,688.11,1467.32,699.35,1456.24,705.25z"/>
	<path class="st14" d="M1469.71,1520.27c28.59,10.87,56.71,23.29,85.89,32.22c40.02,12.24,80.54,15.01,120.69-1.98
		c48.48-20.51,73.92-74.92,57.2-124.23c-7.46-22-27.98-38.46-49.4-39.62c-18.74-1.02-39.37,12.03-46.57,29.46
		c-10.7,25.89,2.62,54.12,29.79,63.31c4.47,1.51,8.8,3.43,15.28,5.97c-13.18,11.68-25.64,11.98-39.09,5.97
		c-45.62-20.39-58.06-74.13-26.38-113.97c26.56-33.4,63.98-43.7,104.67-28.79c15.79,10.13,29.12,23.63,45.33,33.2
		c48.25,53.19,38.08,133.44-21.97,182.66c-56.34,46.18-120.5,50.79-188.03,37.16c-74.79-15.09-140.97-50.91-206.65-87.89
		c-98-55.18-198.14-106.65-309.44-128.53c-127.29-25.03-240.6,6.08-330.07,102.48c-44,47.41-63.51,106.02-49.31,172.2
		c2.07,9.67,5.29,18.8,11.32,26.75c20.77,27.41,30.19,29.02,59.45,10.84c49.09-30.49,84.43-74.27,118.52-119.76
		c37.33-49.82,68.79-103.21,99.42-157.14c5.98-10.52,11.99-15.43,24.36-12.92c21.18,4.3,43.17,2.27,64.27,8.3
		c24.14,6.9,24.55,7.11,12.17,28.37c-19.96,34.29-42.86,66.52-68.25,97c-4.31,5.07-4.57,12.76-10.73,16.65
		c-14.41,10.86-20.55,27.66-30.21,41.94c-5.76,8.52-9.24,18.8-18.6,24.62c-36.44,48.84-86.19,79.64-139.45,107.28
		c-88.73,46.05-182.19,40.4-276.32,29.94c-42.27-4.7-84.29-12-126.23-19.24c-21.94-3.79-41.45-13.78-57.06-32.55
		c12.46,1.28,24.95,3.96,37.36,3.61c63.84-1.81,114.77-29.86,155.49-78.12c28.01-33.21,49.08-71.05,72.05-107.58
		c71.13-113.12,176.06-173.33,305.2-195.63c65.66-11.34,130.7-6.46,195.02,9.93c5.23,1.33,10.05,4.23,15.07,6.4
		c6.57,7.21,11.86,16.06,22.79,17.66c14.11,4.52,27.85,10,41.68,15.25c16.83,6.92,33.66,13.82,50.08,21.64
		c14.58,5.9,28.77,13.33,45.33,11.22c27.95,14.21,58.06,24.2,83.74,42.85C1385.79,1483.74,1425.84,1505.68,1469.71,1520.27z"/>
	<path class="st15" d="M785.43,943.16c3.09-6.7,3.23-15.02,11.7-20.29c28.27,52.31,75.17,71.2,131.49,71.93
		c10.79,0.14,11.27,4.11,8.06,12.45c-8.56,22.25-22.19,41.56-34.85,61.46c-5.56,8.73-10.62,17.77-15.91,26.67
		c-29.88,41.23-71.35,72.54-98.97,115.75c-4.86,7.6-12.04,13.37-19.83,18.35c-132.63,84.68-246.3,188.66-329.24,323.87
		c-16.58,27.02-30.01,55.04-30.96,87.69c-0.19,6.38,0.64,15.43-7.53,17.79c-7.91,2.29-12.85-4.75-16.51-10.46
		c-22.32-34.85-25-73.16-9.03-109.6c10.42-23.77,20.64-44.97,13.1-71.37c-2.4-8.43-0.94-17.96-1.24-26.98
		c-0.73-18.57,7.15-26.58,26.75-26.88c18.48-0.29,37.35-3.58,52.84-15.88c13.19,0.25,18.85-10.25,25.97-18.45
		c24.65-28.41,45.3-59.76,66.28-90.85c28.86-42.76,63.84-78.63,111.75-100.11c6.25-3.01,11.86-8.58,19.77-5.16
		c1.48,1.39,2.58,3.04,3.33,4.92c1.29,4.02,0.98,8.06,0.24,12.16c-0.72,3.98-3.76,7.11-3.96,11.01c3.76-7.51,5.66-16,9.28-23.81
		c2.9-7.39,4.26-15.39,8.68-22.18c13.2-23.13,23.78-47.54,33.96-72.03c12.14-29.21,27.13-56.67,44.77-82.8
		c8.51-7.16,16.05-15.61,27.1-20.79c-10.75,2.85-17.48,13.87-29.43,11.54c-8.1-5.84-5.02-13.28-2.32-20.11
		C785.55,968.71,786.86,956.15,785.43,943.16z"/>
	<path class="st16" d="M1676.36,1014.11c0.29-43.72-9.97-91.78-42.4-133.72c-14.42-18.65-31.71-33.87-51.28-45.72
		c-10.72-6.49-10.55-11.7-7-20.98c2.21-5.79,3.46-12.04,4.38-18.2c1.14-7.66,4.55-9.95,12.59-9.76
		c98.96,2.35,199.6,94.79,213.61,192.73c15.69,109.67-28.27,194.95-101.17,271.3c-56.83,59.52-129.16,85.5-206.43,102.55
		c-20.42,4.5-41.03,8.18-61.65,11.73c-10.51,1.82-13.27-1.15-12.56-13.62c1.44-25.16,16.6-30.63,37.03-36.23
		C1591.39,1278.55,1681.15,1155.82,1676.36,1014.11z"/>
	<path class="st3" d="M995.42,1553.78c12.7-4.98,25.04-11.34,38.16-14.7c64.44-16.5,125.01,44.07,108.67,108.35
		c-1.51,5.92-4.14,12.16-8.03,16.73c-5.29,6.22-12.43,14.74-20.72,11.58c-10.69-4.09-0.99-13.21-0.27-19.63
		c1.5-13.28,3.92-26.16-1.51-39.11c-8.84-21.08-21.95-38.26-46.01-41.06c-23.1-2.69-39.64,9.39-50.57,29.78
		c-1.48-1.69-2.6-2.43-2.92-3.43c-2.63-8.19,5.99-20.77-4.14-24.46c-10.77-3.93-18.79,7.39-25.7,14.73
		c-35.36,37.55-35.73,89.13-1.53,128.72c26.81,31.04,76.81,34.77,116.72,8.16c34.93-23.29,62.57-52.68,79.33-92.16
		c18.29-43.07,33.87-86.98,46.05-132.09c4.22-15.61,9.88-18.93,24.99-9.39c21.72,13.71,44.79,25.73,68.42,35.8
		c17.11,7.29,17.66,16.14,12.71,31.96c-8.74,27.94-13.86,56.77-14.81,86.35c-1.39,43.51,17.8,73.33,56.96,91.18
		c6.61,3.01,14.62,4.33,18.25,14.02c-20.1,3.51-39.61-0.44-57.91-4.89c-60.28-14.64-117.51-3.76-174.79,14.94
		c-36.43,11.9-73.49,19.84-112.62,20.93c-85.29,2.39-136.69-75.85-116.34-143.47c0.8-2.64,0.78-5.53,1.14-8.3
		C938.49,1597.05,962.03,1571.36,995.42,1553.78z"/>
	<path class="st17" d="M1297.34,660.22c0.21,3.2,0.42,6.4,0.64,9.6c2.64-47.39,34.29-78.45,61.7-111.62
		c7.63-9.23,13.93-19.1,19.85-29.35c10.37-17.94,13.82-33.42-3.28-51.82c-18.37-19.77-22.06-49.32-38.74-71.16
		c-2.36-3.09-3.52-8.26,1.35-10.89c5.99-3.23,12.34-2.77,17.48,1.89c7.3,6.62,12.68,14.76,17.07,23.58
		c1.81,3.62,3.12,8.53,8.01,8.58c5.97,0.06,7.91-5.41,9.35-9.86c7.51-23.22,5.53-46.67,0.71-70.06c-1.12-5.45-3.27-10.69-4.29-16.15
		c-0.95-5.09,0.75-10.75,5.13-12.7c5.74-2.56,7.81,4.07,11.06,7.34c10.32,7.74,8.35,20.93,13.71,30.86
		c0.21,10.83,0.63,21.67,0.96,32.51c-0.93-11.4-0.12-22.79-1.09-34.2c-4.49-13.49-10.6-26.7-6.81-41.52
		c5.49-12.1,11.52-14.71,17.19-0.35c3.84,9.72,6.62,19.85,9.88,29.79c6.13,13.43,4.32,28.16,6.59,40.91
		c0.55-11.43-5.41-24.13,0.29-36.83c5.72-6.07,12.64-9.22,15.48,1.23c14.5,53.31,22.01,106.25-14.72,154.8
		c-19.31,39.57-34.05,81.39-54.76,115.63c2.81-2.28,5.81-10.58,13.04-14.93c3.7-2.23,8.11-4.08,11.54-0.88
		c3.83,3.57,4.51,8.31-0.37,12.24c-10.13,41.2-35.88,72.64-64.11,102.51c-8.63,9.13-19.33,15.18-31.84,11.46
		c-51.4-15.28-103.03-30.26-142.89-69.54c-8.3-8.18-12.81-14.46-4.42-26.37c12.21-17.34,16.98-37.92,18-59.16
		c9.23-6.18,15.03,0.91,21.47,5.52c1.39,1.41,2.62,2.96,3.78,4.56c16.03,15.33,35.69,25.69,53.37,38.76
		c8.34,6.16,16.99,11.97,24.1,19.66C1297.51,648.22,1293.97,655.42,1297.34,660.22z"/>
	<path class="st18" d="M1353.66,1557.31c26.35,12.99,49.5,25.02,73.15,35.95c55.74,25.77,111.52,49.22,174.48,54.8
		c74.3,6.59,134.59-22.01,192.25-62.47c6.37-4.47,11.26-15.27,20.8-7.33c7.93,6.6,3.53,16.03,0.28,23.33
		c-14.33,32.16-39.7,54.13-70.85,68.14c-79.44,35.73-158.97,30-237.53-3.82c-49.56-21.34-96.87-46.59-136.65-83.91
		C1363.38,1576.17,1355.81,1570.89,1353.66,1557.31z"/>
	<path class="st19" d="M1300.62,911.56c-12.96,10.29-20.94,6.27-31.59-6.07c-30.85-35.76-74.3-48.83-118.71-54.43
		c-41.21-5.19-83.16-9.69-124.92-2.23c-17.02,4.52-24.86-3.87-27.54-19.53c6.57-14.26,21.42-14.21,33.42-18.06
		c9.82-3.15,4.85-6.22,2.03-10.29c63.65-8.37,124.61,2.74,184.16,24.93c19.83,7.39,37.77,17.77,54.5,30.54
		C1290.18,870.33,1300.58,888.23,1300.62,911.56z"/>
	<path class="st20" d="M1814.93,557.5c-0.98,39.89-12.9,67.92-40.46,87.59c-31.88,22.75-75.44,14.65-98.07-17.24
		c-6.39-9.01-8.37-19-7-29.81c1.06-8.36,1.23-19.18,11.12-20.32c12.03-1.38,7.1,11.09,9.07,17.11
		c9.93,30.38,44.93,38.61,68.04,15.41c31.77-31.88,23.88-93.73-14.99-119.56c-7.01-4.66-21.06-7.95-16.44-17.73
		c4.5-9.53,17.98-4.66,27.02-1.93C1779.63,478.99,1819.39,516.91,1814.93,557.5z"/>
	<path class="st21" d="M1108.26,529.23c3.13-1.16,6.25-2.32,9.38-3.47c14.17-2.49,27.15-9.93,41.92-9.99
		c15.74-0.06,30.68,1.44,38.52,18.1c0.22,7.49-4.68,12.97-7.62,19.24c-0.8,0.58-1.61,1.15-2.42,1.71
		c-2.66,0.17-4.34-12.06-8.15-0.22c-4.57,14.19-10.53,27.93-15.89,41.86c-8.5-4.75-10.88,4.03-14.22,7.61
		c-14.61,15.64-32.06,20.8-52.66,17.2c-7.23-23.97-2.29-48.51-3.08-72.77C1093.75,539.65,1101.69,534.35,1108.26,529.23z"/>
	<path class="st22" d="M1171.51,399.08c2.3-10.74-1.64-20.55-4.86-30.34c-10.72-32.59-7.43-43.51,19.75-63.31
		c3.35-2.44,6.8-4.75,10.2-7.11c2.48-5.65,4.29-12.97,12.9-8.79c7.82,3.8,17.65,6.18,18.66,17.26c0.69,7.57,0.22,15.21,0.18,22.79
		c-2.06,6.63-7.99,6.34-13.21,7.37c-4.54,0.89-9.66-0.58-14.41,4.15c6.54,7.86,19.49,6.89,24.18,16.81
		c2.49,5.8,2.38,11.77,1.29,17.81c-2.2,13.8-5.73,27.46-4.83,41.65c-1.27,2.68-2.54,5.35-3.81,8.04
		c-4.62,14.48-12.77,18.23-26.33,9.76c-7.09-4.43-14.55-8.12-20.12-14.57C1167.86,413.36,1165.63,406.15,1171.51,399.08z"/>
	<path class="st23" d="M260.69,1440.46c36.39-10.35,66.99-33.34,101.94-46.86c3.83-1.48,7.04-4.58,11.61-3.47l-0.29-0.31
		c-11.56,17.89-20.1,36.87-21.12,58.55c-30.89,15.68-61.9,31.15-92.62,47.16c-12.11,6.31-17.88,5.03-16.43-10.13
		C245.37,1468.82,236.47,1448.47,260.69,1440.46z"/>
	<path class="st24" d="M1033.3,800.95c6.03,1.01,12.05,2.03,21.49,3.61c-17.45,14.82-38.51,13.98-55.01,23.23
		c-10.36,9.18-24.2,10.04-36.24,15.19c-18.93,2.59-23.23,13.96-18.51,30.77c-16.32,18.54-49.31,12.8-57.14-9.85
		c-2.41-6.99,3.89-9.59,6.44-14.09c21.72-6.64,39.72-20.98,61.07-28.85C980.85,811.58,1006.5,804.36,1033.3,800.95z"/>
	<path class="st25" d="M1570.83,731.37c-7.23-10.64-18.35-17.86-20.87-32.7c-3.19-18.79,6.06-40.91,23.77-49.14
		c9.33-4.34,15.77-2.11,21.35,5.61C1587,680.55,1578.91,705.96,1570.83,731.37z"/>
	<path class="st26" d="M1414.3,616.86c0.17-8.04,0.02-16.79-10.57-6.87c-8.57,8.03-15.86,17.42-25.33,25.41
		c27.59-40.85,34.97-91.67,66.46-130.6c-3.04,36.18-10.99,71.2-24.58,104.91C1419.03,612.8,1418.95,616.69,1414.3,616.86z"/>
	<path class="st27" d="M1469.71,1520.27c-27.14-5.62-53.46-13.09-77.01-28.69c-11.29-7.48-20.85-18.2-35.31-20.4
		c-7.99-1.21-8.24-7.96-9.26-14C1390.19,1475.27,1429.44,1498.75,1469.71,1520.27z"/>
	<path class="st28" d="M1218.11,1406.73c-16.82-7.02-33.64-14.03-50.47-21.05c-3.49-6.02-16.78-9.68-4.67-19.44
		c24.63,9.06,50.11,16.24,71.52,32.43C1231.37,1406.12,1225.77,1408.52,1218.11,1406.73z"/>
	<path class="st29" d="M995.42,1553.78c-27.67,22.29-50.79,48.34-66.45,80.55c-1.18-3.66-1.27-7.94-5.61-9.79
		c12.67-25.41,24.74-51.22,47.21-70.02c5.51,1.93,10.96-1.89,16.48-0.19C989.84,1554.15,992.63,1553.96,995.42,1553.78z"/>
	<path class="st30" d="M1309.71,781.07c-20.23,38.73-33.84,42.55-65.65,18.7C1265.02,790.07,1286.65,784.59,1309.71,781.07z"/>
	<path class="st31" d="M1258.41,1334.37c-11.69,32.27-11.71,32.33-39.23,22.33c-8.74-3.18-18.62-4.27-26.78-14.48
		C1214.43,1335.87,1235.96,1341.52,1258.41,1334.37z"/>
	<path class="st32" d="M1108.5,1457.5c14.77-4.72,26.48-0.48,37.89,2.68c15.27,4.22,30.27,9.46,45.2,14.79
		c3.37,1.2,8.72,3.1,6.53,8.57c-1.96,4.88-6.46,8.41-11.61,5.26C1163.05,1474.45,1134.29,1473.26,1108.5,1457.5z"/>
	<path class="st33" d="M1222.09,356.95c-8.53-2.98-17.14-5.75-25.55-9.02c-3.72-1.45-8.56-3.1-7.3-8.52
		c1.08-4.66,5.71-6.06,9.76-6.43c9.01-0.83,18.09-0.94,27.14-1.35c1.73-1.68,3.36-1.6,4.9,0.27c7.38,7.47-2.48,13.98-1.19,21.11
		C1227.98,355.73,1225.37,357,1222.09,356.95z"/>
	<path class="st34" d="M1162.97,1366.24c-5.75,8.23,6.49,12.15,4.67,19.45c-14.21-5.39-28.43-10.78-42.64-16.18
		c-3.65-5.11-9.19-9.82-3.55-16.88C1135.29,1357.16,1149.13,1361.7,1162.97,1366.24z"/>
	<path class="st35" d="M1221.36,417.37c-14.61-5.33-14.8-5.57-3.19-14.93c4.57-3.68,2.53-6.58,0.93-10.38
		c-2.24-5.31-2.35-10.58,2.73-14.69c7.13-4.9,13.99-3.96,20.67,0.94c0.64,2.57,1.29,5.14,1.93,7.7
		C1223.4,386.65,1230.01,407.62,1221.36,417.37z"/>
	<path class="st36" d="M1231.03,331.9c-1.63-0.09-3.26-0.18-4.9-0.27c-0.03-7.45,1.01-15.08-0.3-22.3
		c-2.7-14.95-16.5-19.81-29.23-11.02c-3.4-11.03-15.02-6.65-21.68-11.58c3.05-5.36,9.67-0.71,13.2-4.71
		c17.9-1.43,31.54,9.23,46.42,16.38C1227.79,308.98,1231.33,320.64,1231.03,331.9z"/>
	<path class="st37" d="M1218.11,1406.73c5.46-2.69,10.92-5.38,16.38-8.06c11.1,3.07,20.72,8.95,29.9,15.68
		C1246.6,1426.16,1232.77,1413.94,1218.11,1406.73z"/>
	<path class="st38" d="M1767.12,1381.8c-21.58-2.23-32.99-18.34-45.33-33.2C1741.73,1353.09,1756.62,1364.45,1767.12,1381.8z"/>
	<path class="st39" d="M1444.1,348.77c-3.39,18.73,8.02,37.54-1.88,56.42c-1.67-20.17-3.33-40.33-5-60.5
		C1439.51,346.04,1441.8,347.41,1444.1,348.77z"/>
	<path class="st40" d="M1456.24,705.25c3.72-11.08,11.79-19.38,18.3-28.67c9.32,1.78,5.4,7.67,3.97,12.79
		c-4.18,8.44-8.37,16.88-12.55,25.32C1464,710.22,1460.88,706.95,1456.24,705.25z"/>
	<path class="st41" d="M1242.51,378.31c-6.89-0.31-13.78-0.62-20.67-0.94c0.08-6.81,0.17-13.61,0.25-20.42
		c1.72-3.01,4.45-4.06,7.76-3.95C1234.07,361.44,1238.29,369.87,1242.51,378.31z"/>
	<path class="st42" d="M1121.45,1352.63c1.19,5.62,2.37,11.25,3.55,16.87c-13.3-0.65-20.53-7.24-20.5-20.93
		C1111.04,1346.24,1116.05,1350.25,1121.45,1352.63z"/>
	<path class="st43" d="M1415.21,357.31c-3.95-9.91-7.89-19.81-11.84-29.72c2.26-4.12,4.51-8.24,6.77-12.35
		c2.76,14.09,5.52,28.18,8.28,42.27C1417.24,359.25,1416.17,359.18,1415.21,357.31z"/>
	<path class="st44" d="M1208.93,583.94c-6.63-2.73-13.26-5.45-19.89-8.18c-0.33-6.98-0.66-13.97-1-20.95c0,0,0.53,0.94,0.53,0.94
		l1.06-0.23c13.39,2.15,16.67,13.77,22,23.48C1211.42,581.03,1210.54,582.69,1208.93,583.94z"/>
	<path class="st45" d="M792.79,1249.23c9.27-13.98,18.05-19.88,30.66-25.82C817.59,1237.09,808.53,1242.67,792.79,1249.23z"/>
	<path class="st46" d="M1297.34,660.22c-2.52-4.68-5.04-9.36-7.56-14.04c-3.84-4.88-9.4-8.57-10.6-15.3c0.71-3.81,2.4-6.99,5.9-8.96
		c7.21,4.98,3.52,16.61,12.5,20.5C1297.5,648.36,1297.42,654.29,1297.34,660.22z"/>
	<path class="st47" d="M987.05,1554.33c-5.44,4.7-10.86,10.76-16.48,0.19c4.11-4.4,8.22-8.79,12.33-13.18
		C984.29,1545.67,985.67,1550,987.05,1554.33z"/>
	<path class="st48" d="M634.35,806.54c-44.93,23.04-89.83,46.12-134.79,69.09c-6.1,3.12-11.94,7.24-19.32,6.84
		c-3.17,1.58-6.67,1.66-10.06,2.24c-5.44,0.93-9.87-0.97-11.74-6.11c-2.66-7.29,4.65-6.75,8.08-9.29
		c11.66-8.62,27.08-10.7,37.46-21.54c30.48-22.09,64.86-37.52,97.08-56.67c70.9-42.13,134.22-94,195.16-149.06
		c4.56-4.12,9.75-8.11,10.76-14.92c4.8-1.98,6.98-10.83,13.21-7.35c5.5,3.07,2.77,9.9,1.79,15.12c-4.95,26.24-7.15,53.8-32.7,70.5
		c-37.15,39.44-82.62,67.15-129.61,92.95C651.43,802.85,642.41,802.76,634.35,806.54z"/>
	<path class="st49" d="M618.86,361.86c-32.23,46.72-79.65,70.81-131.5,88.2C521.7,406.67,567.38,380.18,618.86,361.86z"/>
	<path class="st50" d="M503.96,847.77c-8.32,18.37-31.49,15.2-42.73,29.69c4.78,7.09,12.56,3.63,18.99,5.01
		c-40.7,21.98-82.54,41.32-126.86,54.97c-2.41-5.83,3.86-11.76-0.18-17.58C403.44,895.83,453.7,871.8,503.96,847.77z"/>
	<path class="st51" d="M424.53,535.76c24.53-47.01,70.46-63.28,115.41-81.02C508.5,491.6,467.99,515.63,424.53,535.76z"/>
	<path class="st52" d="M1223.67,269.11c-2.12,2.9-5.06,6-8.35,3.13c-24.16-21.07-52.31-20.7-81.42-15.8
		c-3-5.17-8.57-2.93-12.84-4.43c41.67-17.68,77.06-14.65,98.63,8.05C1222.37,262.89,1223.28,265.68,1223.67,269.11z"/>
	<path class="st53" d="M471.28,697.65c11.05-21.28,22.09-42.56,33.14-63.83c1.56,0.8,3.12,1.59,4.68,2.39
		c-10.14,22.37-20.85,44.47-34.42,65.19C473.55,700.15,472.41,698.9,471.28,697.65z"/>
	<path class="st54" d="M492.92,706.3c7.38-18.49,18.58-34.65,30.54-50.42c-6.59,19.54-14.81,38.15-27.29,54.59
		C495.09,709.08,494,707.69,492.92,706.3z"/>
	<path class="st55" d="M461.24,663.19c6.65-9.64,13.3-19.28,19.95-28.92c-1.49,13.03-5.62,24.77-14.3,34.52
		C465,666.93,463.12,665.06,461.24,663.19z"/>
	<path class="st56" d="M852.81,672.14c11.42-5.24,15.58-16.43,21.39-28.4c9.04,10.44,13.79,21.84,22.28,30.64
		c7.5,7.78,14.51,17.67-1.53,26.07c-6.92,3.62-3.8,12.59-5.14,19.15c-2.15-0.04-4.31-2.18-5.6-1.93c-3.6,0.7-0.07,2.49,0.26,3.54
		c4.77,15.06,17.99,26.4,19.05,43.13c-5.98,3.54-12.06,6.94-17.94,10.66c-16.27,10.28-43.45,6.14-42.35,38.86
		c0.69,20.38-14.01,39.36-8.52,62.49c3.28,13.83-2.12,29.71-3.62,44.67c-11.67-8.07-14.65-20.54-16.94-33.37
		c-3.36-21.66-3.06-43.54-4.12-65.34c-0.07-13.79,5.39-25.69,12.65-36.97c13.35-9.3,22.6-20.11,13.76-37.55
		C844.62,723.15,849.92,697.9,852.81,672.14z"/>
	<path class="st57" d="M382.55,953.53c39.97-20.65,79.65-41.88,120.07-61.6c12.94-6.31,24.23-16.47,39.25-18.41
		c5.73,6.82,16.6,30.85,16.94,37.45c-50.29,29.47-100.84,58.43-155.49,79.35C391,981.11,379.76,971.28,382.55,953.53z"/>
	<path class="st58" d="M520.77,968.98c46.44-27.46,92.89-54.92,139.33-82.38c21.34,12.28,24.02,20.41,12.11,36.73
		c-42.41,30.72-86.45,58.79-133.61,81.75C512.69,992.35,509.52,985.94,520.77,968.98z"/>
	<path class="st59" d="M512.39,1142.29c48.19-29.17,99.02-53.79,146.07-85.01c7.52-4.99,13.61-11.52,21.3-16.06
		c14.71-3.7,11.44,5.24,9.37,13.34c-6.89,44.14-44.69,58.38-76.3,78.4c-16.29,10.32-33.27,19.56-49.93,29.29
		c-7.43-9.79-16.58-15.39-29.58-14.42C526.07,1148.36,518.15,1148.66,512.39,1142.29z"/>
	<path class="st60" d="M520.77,968.98c-4.81,10-5.19,18.17,6.82,24.01c4.55,2.21,7.39,7.95,11.01,12.09
		c-39.29,24.82-80.48,46.06-122.98,64.81c-26.88-4.59-31.96-11.37-25.24-33.74c27.25-19.07,59.29-28.93,87.8-45.65
		C491.88,982.48,506.55,976.1,520.77,968.98z"/>
	<path class="st61" d="M503.75,1061.43c43.44-25.1,86.87-50.2,130.31-75.3c7.14,10.6,9.34,23.46,15.76,34.39
		c-40.08,31-84.45,54.96-128.97,78.67C511.69,1088.16,502.36,1077.22,503.75,1061.43z"/>
	<path class="st62" d="M785.43,943.16c17.23,10.61,2.24,23.35,2,35c-0.15,7.35-10.26,14.23-1.01,22.17
		c5.35,2.58,6.98,6.32,3.61,11.61c-28.97,41.49-46.49,88.72-67.5,134.21c-3.44,7.46-5.4,15.95-12.39,21.43
		c-12.06-2.82-7.13-10.52-5-17.42c14.47-63.47,26.92-127.65,63.56-183.42C774,958.69,779.84,951.01,785.43,943.16z"/>
	<path class="st63" d="M344.38,1275.38c-2.54-0.81-5.98-3.11-7.49-2.2c-24.19,14.54-28.1,2.14-25.93-19.02
		c0.43-4.24-0.41-8.34-4.18-11.17c43.66-23.08,88.72-43.23,133.86-63.16c5.71-2.09,5.75,1.5,4.53,5.06
		c-1.95,5.69-7.82,7.59-11.91,11.23c-4.52,4.03-11.92,7.26-10.47,14.23c1.32,6.32,8.97,5.13,14.12,6.69
		c4.94,1.49,11.74,0.29,12.45,8.22C415.6,1244.54,380.48,1260.99,344.38,1275.38z"/>
	<path class="st64" d="M449.36,1225.25c-3.15-1.04-6.28-2.88-9.45-2.97c-9.8-0.28-22.47-0.26-24.51-10.22
		c-2.06-10.07,9.4-16.8,17.5-22.85c3.42-2.56,12.4-0.23,7.74-9.39c21.93-16.31,48.28-24.17,71.76-37.53
		c10.49,0.02,21.02,0.62,31.46-0.07c14.89-0.98,20.54,5.89,19.05,20.02c-33.81,12.85-60.12,38.91-93.25,53
		C462.73,1218.19,456.12,1221.9,449.36,1225.25z"/>
	<path class="st65" d="M402.96,1287.22c38.71-24.17,81.43-41,120.38-67.39c-13.12,48.19-37.77,83.83-86.56,97.84
		c-11.07-0.1-18.89,8.2-28.82,11.21c-8.93,2.71-18.69,6.36-25.19-1.78c-7.41-9.27,1-18.23,4.77-26.84
		C390.51,1293.48,400.16,1294.36,402.96,1287.22z"/>
	<path class="st66" d="M672.13,1191.83c-60.57,27.84-98.1,78.55-133.21,132.27c-15.59,23.86-34.06,45.92-52.26,67.94
		c-4.6,5.56-10.68,17.85-21.37,5.61c32.77-37.93,55.19-81.73,72.99-128.22c2.92-7.64,5.15-16.04,12.21-21.49
		c11.61,6.69,20.82,4.33,27.53-7.36c22.16-26.03,49.13-44.86,81.98-54.94C665.27,1185.32,671.02,1184.08,672.13,1191.83z"/>
	<path class="st67" d="M605.91,836.09c12.14-8.6,24.27-17.21,36.41-25.81c26.2-20.25,54.83-36.35,85.08-49.72
		c19.92,4.7,23.05,9.63,16.52,25.88c-33.04,27.9-66.94,54.6-104.78,75.87C627.39,854.44,619.01,842.27,605.91,836.09z"/>
	<path class="st68" d="M382.55,953.53c2.73,14.63,16.11,23.26,20.76,36.8c-26.88,17.51-57.34,27.1-86.67,39.19
		c-19.6-3.33-24.92-19.61-31.51-34.74C316.31,977.98,349.3,965.44,382.55,953.53z"/>
	<path class="st69" d="M672.21,923.33c12.76-17.78-7.94-24.53-12.11-36.73c12.7-14.33,30.84-20.88,45.92-31.89
		c21.8-15.92,43.81-31.48,65.73-49.17c-4.11,17.72-7.89,35.53-12.45,53.14c-3.82,14.79-19.19,17.21-29.14,25.4
		C712.11,898.95,693.22,912.74,672.21,923.33z"/>
	<path class="st70" d="M1151.36,957.24c-45.06,28.44-78.19,69.11-112.39,108.83c-13.95,16.2-28.92,31.79-50.13,43.58
		c0.97-9.69,1.7-16.99,2.44-24.28c28.46-27.67,47.35-62.63,71.36-93.69c25.69-7.76,45.31-25.88,67.66-39.37
		c6.3-3.8,13.26-8.48,21.38-3.56C1153.56,951.66,1152.93,954.47,1151.36,957.24z"/>
	<path class="st71" d="M402.96,1287.22c-4.02,10.12-13.26,16.77-16.9,27.55c-3.42,10.12-0.66,12.55,8.65,12.3
		c9.92-0.26,19.1-3.01,27.33-8.37c4.96-3.24,9.44-6.1,14.74-1.03c-35.16,20.59-71.3,39.25-109.04,54.68
		c-25.04-8.35-32.44-25.8-17.62-41.54C339.91,1313.84,371.3,1300.24,402.96,1287.22z"/>
	<path class="st72" d="M649.81,1020.51c-15.09-6.95-15.96-20.42-15.76-34.39c36.21-23.1,72.42-46.21,110.89-70.75
		C735.56,974.04,689.79,994.6,649.81,1020.51z"/>
	<path class="st73" d="M605.91,836.09c19.72-2.22,25.83,12.81,33.24,26.22c-25.09,19.02-52.53,34.16-80.35,48.68
		c-4.91-12.82-22.09-20.08-16.94-37.45C561.44,858.01,584.21,847.96,605.91,836.09z"/>
	<path class="st74" d="M672.13,1191.83c-3.25-4.06-7.85-3.03-12.13-3.25c-35.08,5.88-61.92,23.87-80.15,54.51
		c-9.89,19.25-17.11,20.44-29.35,4.84c28.65-53.73,74.38-83.61,133.17-95.15c3.27-0.64,6.91-1.21,9.35,2.28
		c6.95,10.97,8.74,21.15-4.4,29.08C683.13,1186.71,677.63,1189.27,672.13,1191.83z"/>
	<path class="st75" d="M310.11,1330.82c-11.25,21.11,5.55,30.32,17.62,41.54c-26.47,13.35-52.95,26.69-84.25,42.47
		c0-19.14-0.01-33.93,0-48.73c0-5.19,1.38-8.71,7.17-10.93C270.64,1347.48,290.31,1339,310.11,1330.82z"/>
	<path class="st76" d="M390.39,1036.15c-4.79,21.12,13.65,24.87,25.24,33.74c-22.81,13.01-46.72,23.67-71.07,33.4
		c-14.47-9.9-16.06-25.12-16.79-40.69C348.38,1053.19,368.08,1041.57,390.39,1036.15z"/>
	<path class="st77" d="M285.13,994.78c13.07,9.26,17.37,26.46,31.51,34.74c-19.15,8.68-38.24,17.51-57.49,25.95
		c-5.32,2.33-11.4,6.41-16.15-1.34c0.15-1.38,0.43-2.75,0.45-4.13C244.01,1007.86,244,1007.86,285.13,994.78z"/>
	<path class="st78" d="M503.75,1061.43c5.5,12.67,15.33,23.39,17.09,37.75c-17.4,7.51-31.1,22.13-50.34,26.09
		c-1.26-14.43-12.23-26.91-8.48-42.34C475.58,1075.08,488.57,1066.12,503.75,1061.43z"/>
	<path class="st79" d="M1150.29,948.99c-14.02,3.06-26.69,10.29-36.48,19.57c-14.85,14.07-30.71,22.87-51.16,23.11
		c10.85-21.09,28.88-35.71,46.08-51.07c8.24-10.47,20.25-12.72,32.32-14.89c7.72,3.09,14.69,7.18,19.15,14.57
		C1160.52,947.31,1155.93,948.75,1150.29,948.99z"/>
	<path class="st80" d="M726.54,764.33c-23.32,10.23-45,23.27-65.54,38.26c-5.61,4.09-11.38,7.72-18.67,7.69
		c-2.66-1.25-5.32-2.5-7.98-3.74c14.8-8.5,29.2-17.84,44.49-25.34c36.99-18.14,68.21-44.22,99.67-70.09
		c3.07-2.53,7.14-3.83,10.75-5.71c-2.98,4.54-5.96,9.09-9.15,13.95c4.89,8.07,20.33-3.58,20.92,9.59
		c0.44,9.87-5.96,18.07-15.89,22.17c-2.67-7.51-4.63-13.49-15.63-8.15C755.12,749.93,741.53,758.56,726.54,764.33z"/>
	<path class="st81" d="M327.76,1062.6c5.6,13.56,11.19,27.13,16.79,40.69c-13.25-0.29-19.71,15.63-33.51,14.01
		c-7-12.6-14-25.19-20.99-37.79C301.94,1072.37,314.17,1065.97,327.76,1062.6z"/>
	<path class="st82" d="M726.54,764.33c13.44-16.79,34.52-21,51.83-31.43c3.12-1.88,6.95-2.4,9.26,0.84
		c4.48,6.29-2.48,11.42-2.48,17.35c-14.16,11.29-24.15,27.44-41.21,35.34C746.51,772.48,740.73,765.1,726.54,764.33z"/>
	<path class="st83" d="M374.24,1390.12c24.48-19,53.72-29.33,83.34-47.26c-5.36,17.84-13.01,31.3-27.19,33.84
		c-19.13,3.43-37.29,10.33-56.44,13.11C373.96,1389.82,374.24,1390.12,374.24,1390.12z"/>
	<path class="st12" d="M836.44,747.77c8.13,1.23,13.02,4.39,9.41,13.87c-4.32,11.36-5.37,25.62-23.17,23.67
		C826.41,772.49,829.33,759.36,836.44,747.77z"/>
	<path class="st84" d="M688.62,1184.14c6.15-8.99,2.85-19.4,4.4-29.08c5,0.73,8.61-1.97,12.13-4.9c2.51,5.56-1.52,13,4.99,17.42
		c-2.89,7.16-5.77,14.32-8.66,21.48c-3.99,2.77-7.99,3.18-11.99,0.01C689.2,1187.42,688.91,1185.78,688.62,1184.14z"/>
	<path class="st85" d="M810.03,822.3c4.54,5.02,7.81,9.03,6.27,17.73c-2.75,15.51-1.64,31.7-2.15,47.61
		C807.13,866.21,803.24,844.59,810.03,822.3z"/>
	<path class="st86" d="M1142.5,928.32c-11.26,4.1-22.52,8.19-33.78,12.29c0-2.78,0-5.55,0-8.33c10.06-7.22,22.36-8.34,33.59-12.38
		c3.06-2.56,7.37-2.66,8.24,0.72C1151.99,926.14,1148.44,929.11,1142.5,928.32z"/>
	<path class="st87" d="M689.14,1054.56c-0.4-6.36-0.67-12.81-9.37-13.34c3.78-5.69,8.27-10.47,16.58-12.37
		C698.28,1039.03,693.68,1046.79,689.14,1054.56z"/>
	<path class="st88" d="M1082.92,587.56c-13.4,11.88-27.75,19.05-45.51,9.08c-9.08-4.86-9.08-12.96-7.54-21.49
		c1.61-8.85,1.94-17.76,1.98-26.73c0.07-17.79-7.75-30.53-24.19-37.21c-9.11-3.7-17.09-8.72-24.07-15.5
		c-23.68-40.55-59.26-66.83-101.76-84.79c-12.14-7.56-13.18-16.42-3.1-26.58c41.06-9.49,78.83-1.63,107.99,28.7
		c33.71,35.06,64.99,72.56,92.09,113.23c4.62,6.94,7.69,14.42,7.27,20.21c-0.34-1.93-2.36-6.77,3.91-9.43
		C1100.01,556.97,1097.78,572.88,1082.92,587.56z"/>
	<path class="st89" d="M1088.19,538.24c-0.47,4.08-0.94,8.15-1.67,14.53c-9.46-24.82-24.4-43.03-40.27-61.01
		c-18.69-21.18-34.96-44.49-53.32-65.98c-30.39-35.56-70.88-43.44-115.12-39.69c-5.78,5.56-12.43,6.8-18.78,1.83
		c-4.81-3.76-1.68-7.02,2.44-9.28c60.6-22.3,105.2-10.51,146.01,40.28c28.49,35.47,61.07,68.13,79.64,110.77
		C1090.24,532.2,1090.39,535.07,1088.19,538.24z"/>
	<path class="st90" d="M983.58,495.7c9.67,3.63,19.55,6.78,28.96,10.99c22.87,10.24,31.07,32.46,23.37,66.14
		c-1.97,8.62-3.07,16.09,1.5,23.8c-25.63-4.32-70.31-49.5-74.85-75.59c-1.27-7.32-0.1-12.82,9.01-12.31
		C981.02,509.26,986.96,506.86,983.58,495.7z"/>
	<path class="st91" d="M953.36,676.48c-56.14-21.24-71.95-68.97-79.45-121.79c-1.45-10.21-0.21-20.8,1.32-31.93
		c16.21,55,34.97,108.37,82.12,145.46C960.32,673.04,961.12,676.83,953.36,676.48z"/>
	<path class="st92" d="M705.51,378.15c-37.14,15.58-65.34,42.75-92.52,71.25c-5.01,3.11-8.46,3.19-8.1-4.16
		c20.49-26.17,42.66-50.52,71.14-68.49c7.97-5.03,15.73-8.44,25.2-6.56C703.88,372.19,708.27,373.25,705.51,378.15z"/>
	<path class="st93" d="M1198.12,537.25c-12.82-18.09-30.28-18.64-50.02-14.7c-9.86,1.97-19.35,12.24-30.45,3.2
		c8.43-6.08,17.71-10.24,27.31-14.33c31.68-13.51,69.24,3.83,72.4,51.04C1201.97,560.9,1200.97,548.37,1198.12,537.25z"/>
	<path class="st94" d="M961.28,839.54c12.17-6.1,24.73-10.93,38.51-11.75c5.02,11.29,10.64,21.84,25.6,21.03
		c-14.54,7.64-30.79,9.05-46.43,12.68C965.97,859.89,959.88,852.73,961.28,839.54z"/>
	<path class="st95" d="M604.89,445.25c1.61,3.52,4.69,4.17,8.1,4.16c-26.23,32.24-50.69,66.01-81.93,94.1
		C555.39,510.5,573.89,473.25,604.89,445.25z"/>
	<path class="st96" d="M1285.08,621.92c-1.2,2.68-2.4,5.36-3.6,8.04c-22.77-15.41-46.42-29.36-70.54-42.54
		c-0.49-1.27-1.16-2.43-2.02-3.49c0.43-1.41,0.86-2.81,1.29-4.22c2.42-2.44,5.02-2.57,7.77-0.57
		C1246.3,584.07,1271.63,593.68,1285.08,621.92z"/>
	<path class="st97" d="M961.28,839.54c3.81,8.99,10.92,15.34,17.68,21.96c-9.86,8.09-23.32,6.19-33.91,12.25
		c-9.06-4.88-9.53-12.16-6.48-21C942.42,841.57,950.93,839.17,961.28,839.54z"/>
	<path class="st98" d="M861.48,378.65c0.47,13.4,11.63,3.35,16.34,7.44c-2.66,8.92-1.77,17.27,4.01,24.83
		c-18.59-5.7-37.18-11.39-58.81-18.02C836.96,385,848.51,380.06,861.48,378.65z"/>
	<path class="st99" d="M1088.19,538.24c-0.35-2.85-0.71-5.69-1.06-8.54c7.08,1.29,14.15,1.93,21.14-0.47
		c-15.08,29.3-9.58,61.1-11.15,92.04c-12.74-7.86,2.66-27.57-14.19-33.71C1088.83,571.56,1099.09,556.03,1088.19,538.24z"/>
	<path class="st100" d="M1217.98,579.15c-2.59,0.19-5.18,0.38-7.77,0.57c-6.86-8.07-13.72-16.14-20.58-24.2
		c-0.92-7.82-3.39-16.37,8.48-18.27c9.04,6.4,9.59,19.27,19.24,25.21C1221.59,567.87,1222.92,573.4,1217.98,579.15z"/>
	<path class="st101" d="M903.51,764.34c-11.37-18.77-24.93-36.47-30.04-59.61c11.67,0,9.93,11.64,16.33,14.87
		c3.88,14.73,13.07,26.8,19.95,40.04C916.03,771.7,907.53,765.29,903.51,764.34z"/>
	<path class="st102" d="M748.55,366.32c25.85-6.97,51.98-6.43,78.33-2.06c-24.13,11.09-50,3.2-74.88,6.09
		C747.88,371.55,746.82,370.13,748.55,366.32z"/>
	<path class="st103" d="M1124.3,380.67c-14.91-8.7-21.87-20.22-20.28-36.39c0.54-5.47,3.76-9.58,9.44-8.94
		c6.78,0.77,6.41,5.14,4.23,10.68C1112.94,358.13,1125.87,367.41,1124.3,380.67z"/>
	<path class="st104" d="M1150.29,948.99c2.91-2.73,5.82-5.46,8.73-8.2c2.77-9.11,11.89-4.21,17.17-7.78
		c8.88,1.33,19.25-4.65,27.38,6.22c-19.51,1.64-36.14,9.07-52.21,18C1151,954.49,1150.64,951.74,1150.29,948.99z"/>
	<path class="st105" d="M1036.57,412.88c19.62-6.05,35.86-10.25,49.47-21.55C1081.09,410.31,1059.33,421.07,1036.57,412.88z"/>
	<path class="st106" d="M1176.18,933.02c-5.72,2.59-11.44,5.18-17.17,7.78c-5.96-3.56-13.66-4.82-16.52-12.48
		c2.95-2.87,10.59-5.85-0.19-8.42c7.33-6.13,13.89-6.53,17.31,3.65C1162.5,932.12,1169.58,931.8,1176.18,933.02z"/>
	<path class="st107" d="M953.36,676.48c3.36-1.78,3.92-4.9,3.99-8.26c13.65,4.76,27.29,9.53,45.19,15.77
		C982.79,685.59,967.43,686.36,953.36,676.48z"/>
	<path class="st108" d="M748.55,366.32c1.15,1.34,2.3,2.68,3.45,4.02c-14.74,7.12-31.32,3.28-46.49,7.81
		c-1.43-2.65-2.85-5.3-4.28-7.95C717.35,373.15,732.54,364.77,748.55,366.32z"/>
	<path class="st109" d="M1188.12,282.02c-3.24,4.8-8.86,2.94-13.2,4.71c-11.68-1.82-22.81,6.88-35.92,1.63
		C1155.08,277.98,1171.89,282.14,1188.12,282.02z"/>
	<path class="st110" d="M1171.51,399.08c-0.13,7.17-0.26,14.34-0.4,21.51c-7.06-4.61-14.21-10.28-12.65-19.19
		C1159.19,397.22,1166.94,399.64,1171.51,399.08z"/>
	<path class="st111" d="M1478.51,689.36c-1.31-4.27,0.81-9.6-3.97-12.79c4.92-19.6,21.11-32.19,33.51-47.74
		C1498.2,649.01,1488.35,669.18,1478.51,689.36z"/>
	<path class="st112" d="M790.04,1011.94c-1.21-3.87-2.42-7.74-3.62-11.61c9.74-8.75,20.42-15.55,37.87-19.2
		C813.61,996.96,799.77,1002.21,790.04,1011.94z"/>
	<path class="st113" d="M689.49,1189.06c4-0.01,7.99-0.01,11.99-0.02c-4.69,10.22-9.37,20.44-15.65,34.13
		C682.18,1208.18,688.94,1199.04,689.49,1189.06z"/>
	<path class="st114" d="M1714.1,856.38c52.84,38.64,77.17,90.29,71.06,155.81c-4.92,3.81,0.3,15.83-10.7,14.23
		c-8.06-1.17-9.39-8.34-11.28-15.3c-1.79-6.6,0.59-13.82-3.52-19.88c-6.93-50.25-31.44-91.15-67.1-126.12
		C1693.59,847.06,1703.62,851.16,1714.1,856.38z"/>
	<path class="st115" d="M1714.1,856.38c-9.06-1.72-17.63-2.22-21.55,8.74c-23.53-21.49-50.92-37.68-76.35-57.18
		C1652.93,815.73,1687.29,828.19,1714.1,856.38z"/>
	<path class="st116" d="M1759.66,991.25c6.34,4.7,3.38,12.81,6.88,18.71c2.64,4.45,1.7,11.81,8.29,12.9
		c7.42,1.24,4.58-9.22,10.32-10.66c2.47,26.72-9.47,49.46-19.17,78.36C1757.68,1053.9,1760.15,1022.49,1759.66,991.25z"/>
	<path class="st117" d="M1210.94,587.43c27.62,7.36,52.26,19.69,70.54,42.54c2.77,5.41,5.53,10.81,8.29,16.22
		c-23.42-15.81-46.88-31.56-70.2-47.5C1215.6,595.97,1211.86,592.68,1210.94,587.43z"/>
	<path class="st118" d="M1415.21,357.31c1.04,0.51,2.11,0.58,3.21,0.2c2.03,13.26,4.62,26.53-3.21,39.86
		C1415.21,384.02,1415.21,370.67,1415.21,357.31z"/>
	<path class="st119" d="M579.85,1243.09c0.59-25.75,21.47-34.76,39.37-44.13c12.05-6.31,23.19-23.48,40.78-10.37
		C630.11,1202.07,602.77,1219.33,579.85,1243.09z"/>
</g>
</svg>
