<?xml version="1.0" encoding="utf-8"?>
<!-- Generator: Adobe Illustrator 24.0.1, SVG Export Plug-In . SVG Version: 6.00 Build 0)  -->
<svg version="1.1" id="Camada_1" xmlns="http://www.w3.org/2000/svg" xmlns:xlink="http://www.w3.org/1999/xlink" x="0px" y="0px"
	 viewBox="0 0 2100 2100" style="enable-background:new 0 0 2100 2100;" xml:space="preserve">
<style type="text/css">
	.st0{fill:#F7F7F5;}
	.st1{fill:#F8FAFA;}
	.st2{fill:#171E24;}
	.st3{fill:#E6F7FB;}
	.st4{fill:#0F171D;}
	.st5{fill:#D8D9DA;}
	.st6{fill:#AB1E24;}
	.st7{fill:#1B2A34;}
	.st8{fill:#DFE0E0;}
	.st9{fill:#5599B8;}
	.st10{fill:#DDDEDF;}
	.st11{fill:#151D23;}
	.st12{fill:#161E24;}
	.st13{fill:#181F26;}
	.st14{fill:#161D25;}
	.st15{fill:#161E25;}
	.st16{fill:#151C24;}
	.st17{fill:#181D23;}
	.st18{fill:#3989BD;}
	.st19{fill:#171C22;}
	.st20{fill:#3581AF;}
	.st21{fill:#318ABE;}
	.st22{fill:#871B1E;}
	.st23{fill:#172937;}
	.st24{fill:#21303C;}
	.st25{fill:#4B83A3;}
	.st26{fill:#2B363F;}
	.st27{fill:#33739A;}
	.st28{fill:#ADB0B3;}
	.st29{fill:#1F2327;}
	.st30{fill:#353B3D;}
	.st31{fill:#4C4D4C;}
	.st32{fill:#091C2D;}
	.st33{fill:#2C597A;}
	.st34{fill:#0D1E30;}
	.st35{fill:#327497;}
	.st36{fill:#2C556F;}
	.st37{fill:#2D3841;}
	.st38{fill:#DDE0E7;}
	.st39{fill:#E0E6EA;}
	.st40{fill:#266E9A;}
	.st41{fill:#263C4D;}
	.st42{fill:#C5C8CD;}
	.st43{fill:#133348;}
	.st44{fill:#C7B7AE;}
	.st45{fill:#C1CCD1;}
	.st46{fill:#D6D9DD;}
	.st47{fill:#60B6E2;}
	.st48{fill:#1B2124;}
	.st49{fill:#63AFD0;}
	.st50{fill:#171B1E;}
	.st51{fill:#ADC8D9;}
	.st52{fill:#C1C7CB;}
	.st53{fill:#BFC3C7;}
	.st54{fill:#CFD6DC;}
	.st55{fill:#222830;}
	.st56{fill:#3887B3;}
	.st57{fill:#3B87B3;}
	.st58{fill:#E43339;}
	.st59{fill:#286F95;}
	.st60{fill:#2E4758;}
	.st61{fill:#D74548;}
	.st62{fill:#CB1D28;}
	.st63{fill:#DE202F;}
	.st64{fill:#C91E26;}
	.st65{fill:#CE4A4C;}
	.st66{fill:#50ABDA;}
	.st67{fill:#2C6D8F;}
	.st68{fill:#499AC4;}
	.st69{fill:#D64147;}
	.st70{fill:#B31D25;}
	.st71{fill:#323F45;}
	.st72{fill:#449DCA;}
	.st73{fill:#B52B36;}
	.st74{fill:#931C20;}
	.st75{fill:#235874;}
	.st76{fill:#24475B;}
	.st77{fill:#203342;}
	.st78{fill:#B42C3D;}
	.st79{fill:#9EDAF4;}
	.st80{fill:#1F3E50;}
	.st81{fill:#6EC1E5;}
	.st82{fill:#993739;}
	.st83{fill:#DC7B7E;}
	.st84{fill:#4F4248;}
	.st85{fill:#F0D4D7;}
	.st86{fill:#C95356;}
	.st87{fill:#327CAA;}
	.st88{fill:#F4FAFB;}
	.st89{fill:#317096;}
	.st90{fill:#F3F5F6;}
	.st91{fill:#6595AB;}
	.st92{fill:#E0F1F6;}
	.st93{fill:#34789F;}
	.st94{fill:#437A8F;}
	.st95{fill:#E4EFF5;}
	.st96{fill:#2D5F7A;}
	.st97{fill:#517A90;}
	.st98{fill:#12354E;}
	.st99{fill:#216D9D;}
	.st100{fill:#D0D6DC;}
	.st101{fill:#C0CDD4;}
	.st102{fill:#C1C8CF;}
	.st103{fill:#B8828A;}
	.st104{fill:#AC8D96;}
	.st105{fill:#5E3A3C;}
	.st106{fill:#728693;}
	.st107{fill:#4A585F;}
	.st108{fill:#6999B4;}
	.st109{fill:#234B66;}
	.st110{fill:#BDC4CA;}
	.st111{fill:#B65B6A;}
	.st112{fill:#D0B2BC;}
	.st113{fill:#337EAD;}
	.st114{fill:#27658B;}
	.st115{fill:#426F8C;}
	.st116{fill:#4C7797;}
	.st117{fill:#EBEFF3;}
	.st118{fill:#78181C;}
</style>
<g>
	<path class="st0" d="M1108.8,193.6c47.2-13,85.3-3.1,93.3,16.6c7.3,17.9-10.8,43.4-26.2,56.4c-21.7,18.3-33,7.3-103.4,26.4
		c-18.7,5.1-28,8.6-35.8,3.2c-14.4-10-14.7-43.9-0.2-60.8c4.3-5,10.6-9.3,23.2-17.8c4.4-2.9,10-6.8,17.7-10.9
		C1084.8,202.7,1095.3,197.7,1108.8,193.6z"/>
	<path class="st0" d="M1616.7,218.8c38.7,8.9,78,16.3,113.2,35.6c76.2,41.7,127.3,103.8,151.9,187.8c12.5,42.6,15.4,86.2,16.1,129.9
		c1.1,66.1,0.3,132.3,0.3,198.4c0,266.9,1.7,533.8-0.9,800.6c-1,97.8-42.3,178.8-122,240.5c-40.7,31.4-86.2,47.6-133.8,59.8
		c-17,4.4-36.3,1.1-54.2,5.5c-6.5-3.8-13.7-2-20.5-2c-334.7-0.1-669.3-0.1-1004,0c-6.8,0-14-1.8-20.5,2
		c-95.4-8.2-174.9-47.3-235.6-122.1c-33.5-41.3-58.7-87.3-62.1-141c-3-47.2-7.5-94.5-4.9-141.9c0.6-11.8,0.1-23.8,0.1-35.6
		c7.7-3.3,14.6-1.3,21.1,3.1c-3.4,12.6-14.6,21.9-12.1,37.4c2.1,13.3,6.3,15.4,17.2,9.7c17.8-9.2,36.5-16.7,53.6-27.2
		c10-6.1,20.4-11.8,32.6-12.4c3.4,0.8,6.3,2.6,8.8,4.9c9.3,8.4,15.2,7.1,18.1-5.7c0.9-4,3.2-7.7,8.6-5.9c6.2,32,13.7,62.9-5.6,94.7
		c-19.2,31.4-13.4,66-1.3,99.2c2.3,6.3,6,14.6,13.8,14c9.7-0.7,7.5-10.5,8-16.8c2.4-28.8,14.9-53.9,29.3-77.8
		c48.8-80.6,107-153.2,181.2-212.4c25-20,48.7-41.9,72.6-63.3c21-18.8,43.7-34.8,68.4-48c14.5-7.7,26.5-18,35.6-31.7
		c24.5-36.9,61.5-63,86.9-99.1c2-2.9,5.5-4.2,9.3-3.9c6.4,6.1,14.8,8.7,22.4,12.7c7.1,18.6,5,38.4,7.6,57.6
		c1.4,10.7-6.6,18-14.8,23.8c-30.8,22-41.6,55-49.4,89.6c-1.2,5.4-2.4,11.6,2.6,15.7c5.6,4.5,10.6-0.3,15.3-2.7
		c37.5-19.4,68.8-48.2,92.2-81.2c47-66.6,112-110.5,177.4-154.8c42.3-28.6,84-58,126.4-86.4c21.2-14.2,34.7-32.5,30.5-59.7
		c-3.4-32.3-25-51.2-51.1-64.6c-66.3-33.9-136.9-47.3-211.2-39.2c-41.2,5.7-79.8,19.2-116,39.6c-6.7,3.8-13.2,8-21.5,6.2
		c-14.4-9.1-2.1-15.9,3-21.1c23.5-23.7,52.1-40.1,83.3-51c19.1-6.7,35-16.3,48.7-31.1c24-26,56.3-44.3,72.5-80.4
		c-28.3,2.7-55.6-1.1-82.2-9.5c-61-19.4-91-65.9-108.1-123.7c-1.4-4.7-2.2-10.7,2.7-13.3c6.6-3.6,9.8,2.8,13,7.1
		c3.4,4.5,5.4,9.8,8.1,14.7c30.9,55.8,81.1,85.8,140.6,100.6c37.6,9.4,52.6,0.6,73.3-32.6c3.3-5.3,6.3-10.9,8.7-16.7
		c5.4-13.5,9.9-27.3,15.5-40.6c5.7-13.5,11.1-8.8,16.2,0.5c2.4,6.2,2.5,12.7,2.6,19.2c0.2,21.5-5.6,41.5-16.5,59.8
		c-6.1,10.2-4.3,17.6,3.8,25.9c14,14.3,30.8,24.2,48.2,33c23.7,12,49.1,20.1,74.2,28.8c18.5,6.4,33.5,2.5,47.6-11.5
		c27.8-27.7,47.6-59.9,60.2-96.8c18.2-34.1,21.8-72.2,29.8-109c26.8-40.4,27.2-84.8,19.4-130.2c-1.6-9-2.6-20-15.1-22.3
		c-4.1-0.7-7.7-2.4-10.7-5.4c-5.2-6.3-6.6-14.4-9.9-21.7c-2-4.5-3.4-11.4-11-6c-3.3,4.3-5,10.3-11.6,11c-12.1,1.8-6.8,10.1-5.4,16
		c4.4,19.4,2.8,38.9,2.2,58.4c-0.3,10.7-2.9,22-14.6,25.5c-11.3,3.4-14.9-7.6-20.2-14.6c-4.2-5.5-7.9-11.7-21.4-11.9
		c15.8,25.1,22,52.4,39.4,73.5c13.2,16,13.5,30.7,5.3,48.1c-10.5,22.5-26.8,40.7-42.6,59.3c-18.8,22.1-34.3,45.7-38.2,75.3
		c-0.6,4.7-0.8,11.5-6.3,12c-7.4,0.6-6.7-7-8-12.1c-0.4-5.3-0.3-10.5,0.1-15.8c8.7-38.2,1.9-53.9-34.5-70.6
		c-15.6-7.2-22.8-17-27.1-33.4c-12.8-48.5-61.1-64.9-101.2-35.7c-4.4,3.2-9,8.9-14.6,5.1c-6.9-4.7-2.5-11.7,0.5-16.6
		c11.4-18.7,26.6-33.9,45-45.7c7.3-4.7,15.6-4.3,24.3-2.4c24.2,5.4,24.3,5.1,28.6-18.4c0.9-4,2.6-7.6,4.3-11.2
		c1.3-14.6,10.4-25.2,19-35.9c-2.6-8.9-7.4-17-9.2-26.2c-0.7-7.7,1.4-15.5-1.2-23c-1.8-10.6-2.1-21.1,3.6-30.9
		c1.5-2.7,3.1-5.4,4.6-8.1c13.4-31.4-2.4-57.4-38.1-61.9c-11.6-1.5-24-0.1-33.3-9.6c-6.3-8.6-12.9-17.1-1.9-27.3
		c-19.2-6.5-35.7,1.8-52.7,1.9l-0.1-0.1c33.7-14.9,68.8-10.7,102.9-4.4c19.6,3.6,41,8.9,52.4,29.4c3.5,3.1,7.8,2.4,12,2.4
		c109.5,0,219,0,328.5,0C1608.7,220.9,1613,221.5,1616.7,218.8z"/>
	<path class="st0" d="M1058.5,223.1c6.7,10,3.1,19-1.6,28.7c-3.1,6.5-11.8,13.2-2.6,21.6c5.2,8,8.9,1.3,13-1.4
		c17.3-11.2,34.3-23.3,56.1-24.4c5.2,0.8,10.5,1.6,11.6,8.2c-5.9,10.9-17.5,13.3-27.4,18c-20.5,9.6-36.5,23.3-42.7,46
		c-1,3.6-3.9,6.8,0,11.3c14.4,16.5,13.3,33.6-2.4,51.3c-13.4,15-39.1,18.4-55.6,7.3c-2.3-1.6-4.5-3.4-6.4-5.4
		c-40-40.6-87.4-41.4-138-26c-11.6,3.5-21.1,12.1-32.2-6.8c-7.3-12.4-31.2-9.3-47.4-7.9c-28.5,2.5-56.7,7.4-85.5,6.8
		c-16.1-0.3-26.7,10.6-37.6,20.6c-54.2,49.5-96.6,108.4-134.3,170.8c-19.9,32.8-44.6,62.8-60,98.4c-2.8,6.4-10.3,13-1.6,20.5
		c2.4,1.7,4.3,3.9,5.3,6.7c2,8.6-3.3,15.3-5.8,22.7c-3,9,3.8,5.7,7.8,5.9c3.2,0.5,5,2.5,5.9,5.5c1,6.3-2.7,12.1-2.5,19.8
		c9.7-2.4,10.3-13.5,17.9-16.4c3.3,0.3,5.4,2.4,7,5c6.5,9.2,10.5,2,14.3-2.5c8.3-9.7,13.1-21.5,18.9-32.6
		c6.5-12.5,13.3-24.7,23.7-34.4c13-12,19.5-10.1,25,6.6c2.8,8.3,3.2,17.8,12.8,25.1c1.9-22.9,3.1-44.1-4.8-64.8
		c-12.6-33.1-6.6-60.1,20.5-84.9c24.4-22.3,51.3-41,76.7-61.8c7.7-6.3,16.1-11.5,11.2-23.9c-3.5-8.9,2.5-11.2,9.9-10.9
		c7.1,0.4,14,2.5,19.9,6.3c37.8,23.9,80.7,25.7,123.2,28.9c33.7,2.6,35.2,4.5,20.8,36c-2.3,5.1-4.5,10.2-8.3,14.5
		c-7.1,5.9-11.2,13.9-15,22.1c-2.4,5-4.9,11.1-10,12.9c-27.3,9.6-26,32.3-26.2,54.6c-0.1,7.6,0.2,15.2-0.4,22.8
		c-3.6,20.5-20.3,30.9-34.3,43.1c-79.8,69.1-165.3,130-260.2,177c-4.4,2.2-8.2,5.3-12.3,7.9c-49.3,26.2-100,49.4-150.7,72.7
		c-29,11.6-57.9,23.4-86.5,36c-7.4,3.3-15.2,7.9-23.6,1.9c-0.1-99.3-0.2-198.7-0.2-298c0-46.1,0.4-92.1-0.1-138.2
		c-0.6-56,16.4-106.9,45.2-153.9c48.2-78.5,115.9-130.1,208.3-146.4c8.2-1.4,16-4.7,24-7.1c7.3,3.9,15.1,2,22.6,2
		c164,0.1,328.1,0.1,492.1,0.2C1043.4,221,1051.3,218.9,1058.5,223.1z"/>
	<path class="st1" d="M807,627.1c-0.4-22.1-2.4-44.2,3.6-66c1.1-4,0.8-10,5.1-10.4c23.4-1.8,27.8-21.3,36.6-37.1
		c1.4-2.6,5.8-3.5,8.8-5.2c4,4.8,3.8,10.5,2.9,16c-8.2,47.8-3.1,96.2-5.3,144.2c-1.4,27-7.4,53-17.1,78.2
		c-4.9,13.1-8.7,26.7-14.5,39.5c-6.6,12-10.2,25-12.7,38.4c-5.3,20.3-0.5,39.8,4,59.4c3.2,13.2,7.3,25.9,17.7,35.5
		c24,26,54.6,36.6,88.9,41c53.5,7,103.5-5,152.5-24.8c9.5-3.9,19-9.3,30-5.5c3.1,1.8,4.1,4.7,4.1,8.1c-6,15.5-20.4,23.8-30.8,35.6
		c-5.5,6.3-10.4,12.8-14.9,19.8c-19.2,28.1-36.7,57.5-59.6,82.9c-5.1,5.7-9.8,11.7-16.6,15.7c-13.6,7.3-28.5,5.7-42.9,5.2
		c-14.5-0.5-27.5,2.2-39,11.3c-9.6-0.7-22.3,3.8-21.7-13.4c-5-9.7,2.7-15.7,7-22.3c12-18.7,24.1-37.4,34.1-57.3
		c4.5-8.8,6.7-14.6-7.8-15.6c-44.5-3.2-84.4-17.5-112.4-54.8c-8.4-11.1-14-8.7-19.2,2.4c-37.1,49-54.8,106.1-68.3,164.9
		c-3,12.9-4.8,26.1-10.9,38.1c-3.2,4.8-7.7,7.3-13.5,7.4c-59.3,3-100.8,35.7-134.6,81c-2.5,3.3-4.3,7.2-6.6,10.7
		c-17,30.9-26.9,65.1-45.1,95.6c-12.1,20.3-25.9,39.1-41.3,56.9c-12.8,10.4-28.3,13.7-44.1,15.3c-16.4,1.7-30.5,6.3-37.5,23
		c-0.8,1.1-1.6,2.2-2.3,3.3c-3.8,6.7,3.9,18.6-7.4,21c-12,2.6-17.5-7.9-23.2-16.4c-6.7-21.2,0-40.7,19.9-57.4
		c17.1-7.4,33.5-16.5,52.4-19.1c10.5-1.5,17-8.7,22.8-18.4c-25,14.3-49.9,26.3-75.2,37.4c-28.3,21-62,31.7-92.4,48.7
		c-5.7,3.2-12.9,6.3-19.6,0.8c-7.4,0.3-14.5-0.2-21-4.2c0-34-0.1-68.1,0.1-102.1c0-6.7-2.1-14.1,3.8-19.7
		c34.5-10.8,66-28.6,98.8-43.3c36-14.1,70.2-32.1,104.7-49.4c29.3-15.5,58.5-31.2,85.5-50.5c8.6-6.2,18.1-9.9,27.9-13.3
		c34.7-20.1,69.3-40.3,102.4-63c15-10.3,11.5-29.2,21.8-41.4c1.3-4.1,6.6-7.5,3.3-12.2c-0.9-1.2-3.8,2.6-5.9,4.2
		c-30.9,25-65.5,44.2-100,63.3c-22.4,12.4-45.2,24.3-67.2,37.4c-23.2,14.7-49.3,23.9-73,37.6c-44.5,21.2-89,42.2-133.5,63.4
		c-7.8,4.8-16.4,7.9-25.1,10.1c-18.3,4.6-33.4,12.8-39.7,32.1c-8.5-20.4-0.7-40.4,1.2-60.6c12.9-9.8,28.3-14.8,42.9-21
		c61.5-26.1,121.4-55.3,181.1-85.1c17.5-7.6,32.3-20.1,49.8-27.6c45.1-22.7,87.5-49.9,129.2-78.1c13-8.1,25.5-16.9,38-25.7
		c23.7-16.7,44.8-35.5,52.1-65.7c-33.5,21.9-68.1,43.2-102.8,64.4c-43.1,25.7-86.1,51.5-130.2,75.5c-15,6-28.4,15-42.9,22.1
		c-59.8,30.5-120.5,58.8-182.7,83.9c-18,7.2-33.6,14.1-31,37.6c0.4,3.4-1.7,6.7-4.8,8.8c-7.3-29.8-6.1-59.2,4.3-88.2
		c7.5,5.9,15,3.8,23,0.6c13.3-5.3,26.3-11.3,39.5-17.1c11.7-2.6,20.1-12.7,32.1-14.5c24-10.3,47.6-21.2,71.1-32.4
		c41.9-20,83-41.4,122.8-65.3c46.5-23.6,90.2-51.8,133.4-80.9c24.8-15.5,48.2-32.9,72.3-49.5c10.8-7.5,14.2-18.5,16.7-30.1
		c1.6-7.5,2.7-15.1,5.8-23.8c-33.1,27.8-67.8,51-103.2,73.2c-46.2,28.6-91.8,58.1-139.7,83.8c-43,23.2-87.2,43.8-130.3,66.6
		c-21,7.9-41.4,17.3-62.2,25.9c-12.9,5.6-25.4,12-38.5,17c-15.3,7.1-33.9,8.4-43.2,25.7c-9.6-17.2-7.8-36-7.9-54.6
		c1.5-1.3,3.2-2.1,5.2-2.4c26.1-1.7,46.6-18.1,70.1-26.5c28.9-12.3,58.1-23.6,85.9-38.4c53.4-22.8,104-51.3,154.7-79.4
		c28.1-14.8,55.1-31.4,81.4-49.2c37.2-21.9,70.4-49.2,104.7-75.1c16-9.4,26.2-25.6,41.3-36c6.3-7.3,22.8-12.8-0.1-22.1
		c-15.7-6.4,0.4-15.2,2.8-22.9c18.2-16.4,27.2-37.1,29.8-61.2C816.4,633.3,817,627.6,807,627.1z"/>
	<path class="st2" d="M243.5,1217.9c-7.4-33.5,13.3-43.5,39.9-54.5c60.4-24.8,119.2-53.4,178.6-80.5c6.1,13.5,15.1,26.3,8.5,42.3
		c-54.7,33.1-113.7,57.5-171.9,83.3c-17.5,7.7-33.5,19.8-53.9,20.1C244.3,1225.1,243.9,1221.5,243.5,1217.9z"/>
	<path class="st3" d="M243,1054.1c-1.1,0-2.2,0.1-3.3,0.1c1-25.2-3.4-50.8,4.3-75.6c36-15.1,73.7-26.2,108.1-45.1
		c43.4-15,84.5-35.3,126.1-54.5c44.3-17.2,83.9-44,127-63.7c9.5-4.3,18.2-10.5,28.8-12.1c4.5,0.1,8.4,1.1,10,6
		c-5.4,18.4-24.5,20.3-36.7,30.4c-20.6,14.4-44.2,23.5-64.9,37.7C489.2,903.7,436.7,931.6,383,957c-32.3,14.6-65.9,26.2-97.4,42.6
		c-4.9,2.5-10,4.8-15.3,6.1c-14.8,3.6-22.2,12-21.2,27.8C249.7,1040.8,250.4,1048.9,243,1054.1z"/>
	<path class="st4" d="M1121.1,252c-26.4,5.3-47.7,19.9-69.6,39.8c1.2-8,2-13.3,2.8-18.5c19.4-37.6,54.3-48.2,92.6-52.8
		c5.5-0.7,11-1,16.5-1.5c16.8,3.6,34.5,1.1,50.8,8c32.5,13.9,42,40.9,23.5,67c-15.3-1.2-9.8-18.2-18.6-24.3
		c-13.9-20.2-33.6-26.3-56.7-21.9C1148.6,250.4,1134.6,248,1121.1,252z"/>
	<path class="st5" d="M542.2,1876.9c6.3-6.7,14.5-3.9,21.8-3.9c333.8-0.2,667.7-0.2,1001.5-0.1c7.3,0,15.5-2.8,21.8,4
		C1238.9,1877,890.6,1876.9,542.2,1876.9z"/>
	<path class="st6" d="M243.5,1289.3c-2.5-17.8,4.6-27.8,22.6-31.9c13.9-3.2,27.1-9.5,40.6-14.4c9.7-0.5,8.8,7.6,9,12.9
		c0.5,12,3.5,18.8,17.4,14.1c4.2-1.4,10-1.6,11.2,5.4c-27.7,13-55.3,26.3-83.2,38.7c-5,2.2-11.6,10.3-17.6,0.4
		C245.3,1306.1,245.6,1297.7,243.5,1289.3z"/>
	<path class="st7" d="M311,1117.3c-17,7.9-34,15.8-51,23.6c-13,6-11.4-3.9-12.2-11.2c2.8-7,1.8-14-0.3-21
		c-1.7-10.9,2.2-17.9,13.5-20.7c9.8-2.4,19.4-5.7,29-8.6C301.5,1089.6,311.6,1100.5,311,1117.3z"/>
	<path class="st8" d="M1058.5,223.1c-171.1,0-342.3,0-513.4-0.3c-8,0-16.9,3.2-23.8-4c169.5,0,338.9,0,508.4-0.2
		c10.3,0,20.9,2,30.9-2.8c2.4-1.2,3.8,1.2,2.6,3.3C1062.2,220.8,1060,221.8,1058.5,223.1z"/>
	<path class="st9" d="M353.4,937.4c-34.2,19.7-69.5,36.5-109.4,41.2c0.1-5.4,0.1-10.8,0.1-16.2c38-10,71.5-31.6,109.1-42.5
		C364.5,925.6,355.8,931.5,353.4,937.4z"/>
	<path class="st10" d="M1616.7,218.8c-5.4,6.5-12.9,4-19.6,4c-104.5,0.1-209,0.1-313.6,0c-6.6,0-14.2,2.4-19.4-4.3
		C1381.6,218.6,1499.1,218.7,1616.7,218.8z"/>
	<path class="st11" d="M1223.7,269.1c13.1,3.6,1.8,20.9,14,25c-1,1.5-2.1,2.9-3.1,4.4c-17.5,2.9-29.9-13.5-46.9-12.5
		c-13.6-2-27.2-3.9-39.9,1.2c-3.4,1,1.3,4.1-0.4,1.9c-0.5-0.7-0.1-1.1,1.3-1.6c8.7-2.8,17.4-4.3,26.6-3.2
		c8.4,3.3,20.7-0.5,23.2,13.1c-30,24.5-39.1,54.1-22.3,90.3c1.3,2.9-0.3,6.8-1.7,10c-10.7,6.7-9.5,13.5,0.1,20.1
		c12.8,10.9,26,19.8,42.9,7.8c0.1,28.2-7.1,33.7-33.9,24.2c-9-3.2-16.9-2.8-23.5,2.9c-17.8,15.4-36.4,30.2-45.6,52.7
		c2.2,3.3,4.5,1.5,5.4,0.2c33-48.8,110.5-15.8,118.4,38.5c1.9,13.1,7,19.1,19.3,22.7c21.3,6.2,34.4,22.1,45.2,40.9
		c8,13.9-5.8,23.1-5.3,35c-12.3,0-10.8-12.3-16.4-18.3c-13-25.9-38.3-33.6-62.7-42.5c-4.3-5.7-2.7-13.1-5.6-19.2
		c-1.2-4-2.4-8-3.5-12c-8.4-30-29.7-42.3-60.3-34.9c-10.2,2.5-19.4,7.4-28.2,13c-3.6,2-7.3,3.6-11.2,4.9c-8.3,2.7-16.4,2.9-24.3-1.3
		c-22.7-38.5-51.6-72.6-79.6-107.2c-21.3-26.3-46.9-45.6-81.6-51c-21.7-3.4-41.5,2.6-61.4,9.3c-8.6,2-17.1,4.1-25.6,8.1
		c15.5,6.1,30.7,11.1,46,16.1c44.4,16.8,81.2,42.8,103.5,86.1c3.8,10.2-1,15.9-10.3,19.2c-8,2.8-9.1,8.6-5.4,15
		c16.2,28,33.6,55,67.4,64.7c16.6,7.6,30.6-3.2,45.6-6.6c16.1,3.2,9.1,20.4,17.4,28.3c18.1,6.2,31.3-2.4,44.4-13.3
		c4.6-3.8,9.4-14.3,18-4.3c-21.1,53.2-52.1,68-105.3,49.2c-59.4-20.9-107.8-54.9-133.9-114.8c-1.4-3.3-2.5-6.5-6.4-7.6
		c10.6,89.9,87.3,153.5,198.9,137.9c-15.4,22.7-30.5,44-50.2,62c-33.2,30.3-65.4,61-110.4,74.5c-24.9,7.5-43.4,27.2-62.4,44.6
		c-2.5,2.3-5.3,5.1,0,7.6c-1,14.2,5.9,23.4,18.6,28.8c12.8,5.5,22.6-0.3,31.6-8.8c10.7-6.7,23.5-7.5,34.7-12.7
		c15.2-5.2,31-8.1,46.3-12.5c70-9,138.4-5.2,203.7,24.8c13.4,6.2,26.9,12.7,36.5,23.7c9.7,11.1,20.5,17.5,35,18.4
		c5.3,28.2-8.8,46.3-30.7,61.1c-63.4,43.2-126.6,86.6-189.8,130.1c-40.4,27.8-76.3,59.8-104.8,100.6
		c-27.4,39.1-63.7,70.2-105.1,94.5c-5.9,3.4-12.1,8.6-19.2,3.9c-7.5-5.1-7.3-14-5.4-21c10.1-36.9,17.9-75.3,54.7-97.4
		c8.4-5,14.1-12.5,11-22.6c-5.2-17.2-2.4-34.7-3.7-52c1.4-14.1,10.1-17.1,22.8-16.8c20.5,0.6,41.7,5.8,60.9-6.7
		c3.4,8.9,7,12.9,16.7,4.9c20.6-17,36.7-38,53.4-58.1c25.6-30.7,54.9-56.7,87.7-79.2c12.6-6.7,25.1-13.6,40-16
		c-4.6-0.6-8.7,1.2-12.8,0.5c-7.9-0.2-14.8-2.8-19.6-9.3c-3.7-5-8-7.2-14.1-4.3c-11.2,3.3-21.6,10.1-34,8.3
		c-17.1,0.3-31.2,9.9-46.5,15.5c-58.9,21.8-118.6,28.2-179.5,9.3c-20.8-6.5-39.2-17.2-51.7-36.1c-2.2-30.2-3.2-60,0.9-90.7
		c4.8-35.6,23.2-53.8,54.9-63.4c3.9-1.2,7.4-3.8,11.4-4.8c4.4-0.2,7.3-0.2,3.8-6.5c-6.6-11.7-14-23.3-16.1-37
		c-0.3-3.5,0.2-6.9,0.3-10.4c0.3-10,16.5-15.5,8-27.8c-5.5-8-11.8-15.4-17.5-24c-9.3,3.3-10.7,19-24,15.7c0-37.3-1-74.7,0.2-112
		c0.5-17.3,5.2-34.5,8-51.7c5-12.8,17.4-29.5,13.2-37.4c-5.6-10.7-25.5-5.5-38.8-5.5c-45.3,0-85.9-15.3-125.5-34.6
		c-1.7-0.9-3.6-1.6-5.5-2c-1.3-0.3-2.7,0.3-6.2,0.8c19,15,7.6,23.7-5.2,33c-30,21.7-59.3,44.1-86.1,69.8
		c-19.1,18.3-25,38.2-15.3,62.1c10.1,24.7,9.3,50.5,10.6,76.2c0.2,4.1,1.1,8.9-4,10.7c-4.7,1.7-8-1.5-10.6-4.8
		c-7.3-9-10.7-19.4-11-30.9c-0.1-3.8,1.2-9-4-10.7c-4.7-1.5-8,2.1-10.7,5.1c-10.1,10.8-18.1,23.1-24,36.6
		c-6.5,14.8-15.2,28.3-25.2,40.9c-3.5,4.4-8.4,9.5-13.9,7.5c-7.1-2.5-2.1-9.7-2.6-14.8c2.2-15.7,15-26.1,19.3-39.9
		c-6.3,12.1-12.9,24.9-22.6,35.7c-3.2,6.1-6.4,12.3-9.7,18.4c-2.9,5.3-7.2,9.6-13.3,6.6c-7-3.4-3-9.5-1.4-14.5
		c1.7-5.2,4.1-10.3,6.2-15.4c6.7-19.5,18.8-36.2,25.9-53.3c-9.7,15-14.4,35.3-29.3,49.5c-4,4.7-8.5,12-14.8,8.3
		c-7.2-4.2-0.6-11,1.4-16.3c2.7-7.1,6-13.9,9-20.9c1.1-6.7,3.8-12.7,7.6-18.3c-3.5,5.2-6.1,11.4-13.2,12.7
		c-18.3,6.5-9.1-7.2-7.3-11.5c9.3-22.6,21.6-43.8,35.3-64c42.4-62.3,77.4-129.8,130.9-184.1c8.3-8.5,16.9-16.8,24.7-25.7
		c20.3-23,43-36.6,76.2-33.9c31,2.6,62-10.3,93.7-4.1c5.5,1.1,11,1.7,16.5,2.6c13.5,2.1,13.3,8.2,3.7,18.2
		c26.5-6.4,50.4-16.4,76.9-17.5c33.6-1.4,63,7.8,85.7,31.3c15.5,16,30.4,20.2,50.2,12.7c19.3-7.3,20.7-24.5,23.2-41.1
		c0.5-3.4,0.1-6.9,0.1-10.4c-8-2.7-6.5,10.8-14.3,7.9c-2-34.7,17.7-63.2,53.9-78c7.7-3.1,15.5-6.2,23.3-9.3
		c26.3-16.9,51.2-6.3,75.9,4.2C1214.8,262.7,1217.7,268.4,1223.7,269.1z"/>
	<path class="st12" d="M1456.2,705.3c-24.8,44-49.7,87.8-74.2,132c-14.4,25.9-28,52.2-44.5,83.1c-5.3-29.7-6.7-55-27.1-73
		c-7.4-6.6,1.1-12.7,4.1-18.1c32.5-59.5,74.7-112.5,112.9-168.2c32.8-47.8,69.2-92.7,110.4-133.7c70-69.7,149.6-118.2,252.7-117.5
		c-5.2,8.6-15,13.3-23.5,16.5c-93.8,35.3-137.3,110.8-162.7,201.2c-2.6,9.4-6.1,18.5-9.2,27.7c-17.6-4.2-29.1,3.5-37.3,18.5
		c-8.3,15.1-1.8,28.2,5.5,40.9c3.1,5.4,12.7,7.7,7.5,16.8c-14.4,53.8-29.4,107.5-43,161.5c-20.8,82.4-44.2,164-68.6,245.4
		c-4.2,14-2.3,19.1,13.4,18c30.7-2.2,61.2-4.9,91.5-10.6c17.6-3.3,32.4-11.4,46.9-23.8c-4.7,43.3-25.6,66.2-64.3,71.5
		c-29.8,4.1-59.6,7.8-89.5,10.6c-11.9,1.1-15.2,5.8-18.4,17.2c-18.8,68.6-39.3,136.6-58.8,205c-3.1,10.8-6.4,13-16.9,7.1
		c-27.9-15.7-56.4-30.6-85.1-44.8c-9.3-4.6-9.5-9.4-7-18.1c11-39.7,24.7-78.4,38.3-117.2c11.2-31.9,10.9-32.3-22.1-30
		c-36.2,2.5-72.5,4.9-108.4,10.9c-7.8,1.3-11.8,3.6-15.5,10.8c-11.7,23-24.8,45.3-37,68c-3,5.5-3.2,11-13,7.4
		c-25.7-9.4-52.9-12.6-80-15.4c-12-1.3-15.7-3-7-16c38.1-56.7,75.7-113.8,107.6-174.3c4.3-8.2,8.3-16,16.6-20.9
		c50-29.4,97.7-62,141.8-101.1c2.7,11-4.1,18-8.1,25.7c-24.5,46.2-49.2,92.4-74.1,138.4c-7.5,13.9-9.5,21.3,11.7,20.7
		c32.2-1,64.2-3,96.3-5c11.2-0.7,14.9-4.6,17.9-15.2c31.7-111,63.9-221.9,96.4-332.7c10.7-36.7,22.4-73,33.6-109.5
		c0.3-10,2.5-19.3,8.6-27.5c8-15.9,14.7-32.4,23.5-43.3c3.2-6-1.7-5.7,1-4.8c-5.5,13.9-15.4,25.4-21,39.3
		C1471.8,688.1,1467.3,699.3,1456.2,705.3z"/>
	<path class="st13" d="M1469.7,1520.3c28.6,10.9,56.7,23.3,85.9,32.2c40,12.2,80.5,15,120.7-2c48.5-20.5,73.9-74.9,57.2-124.2
		c-7.5-22-28-38.5-49.4-39.6c-18.7-1-39.4,12-46.6,29.5c-10.7,25.9,2.6,54.1,29.8,63.3c4.5,1.5,8.8,3.4,15.3,6
		c-13.2,11.7-25.6,12-39.1,6c-45.6-20.4-58.1-74.1-26.4-114c26.6-33.4,64-43.7,104.7-28.8c15.8,10.1,29.1,23.6,45.3,33.2
		c48.3,53.2,38.1,133.4-22,182.7c-56.3,46.2-120.5,50.8-188,37.2c-74.8-15.1-141-50.9-206.7-87.9c-98-55.2-198.1-106.7-309.4-128.5
		c-127.3-25-240.6,6.1-330.1,102.5c-44,47.4-63.5,106-49.3,172.2c2.1,9.7,5.3,18.8,11.3,26.8c20.8,27.4,30.2,29,59.5,10.8
		c49.1-30.5,84.4-74.3,118.5-119.8c37.3-49.8,68.8-103.2,99.4-157.1c6-10.5,12-15.4,24.4-12.9c21.2,4.3,43.2,2.3,64.3,8.3
		c24.1,6.9,24.6,7.1,12.2,28.4c-20,34.3-42.9,66.5-68.3,97c-4.3,5.1-4.6,12.8-10.7,16.7c-14.4,10.9-20.5,27.7-30.2,41.9
		c-5.8,8.5-9.2,18.8-18.6,24.6c-36.4,48.8-86.2,79.6-139.5,107.3c-88.7,46.1-182.2,40.4-276.3,29.9c-42.3-4.7-84.3-12-126.2-19.2
		c-21.9-3.8-41.5-13.8-57.1-32.6c12.5,1.3,25,4,37.4,3.6c63.8-1.8,114.8-29.9,155.5-78.1c28-33.2,49.1-71.1,72-107.6
		c71.1-113.1,176.1-173.3,305.2-195.6c65.7-11.3,130.7-6.5,195,9.9c5.2,1.3,10.1,4.2,15.1,6.4c6.6,7.2,11.9,16.1,22.8,17.7
		c14.1,4.5,27.8,10,41.7,15.3c16.8,6.9,33.7,13.8,50.1,21.6c14.6,5.9,28.8,13.3,45.3,11.2c27.9,14.2,58.1,24.2,83.7,42.8
		C1385.8,1483.7,1425.8,1505.7,1469.7,1520.3z"/>
	<path class="st14" d="M785.4,943.2c3.1-6.7,3.2-15,11.7-20.3c28.3,52.3,75.2,71.2,131.5,71.9c10.8,0.1,11.3,4.1,8.1,12.5
		c-8.6,22.3-22.2,41.6-34.8,61.5c-5.6,8.7-10.6,17.8-15.9,26.7c-29.9,41.2-71.3,72.5-99,115.8c-4.9,7.6-12,13.4-19.8,18.3
		c-132.6,84.7-246.3,188.7-329.2,323.9c-16.6,27-30,55-31,87.7c-0.2,6.4,0.6,15.4-7.5,17.8c-7.9,2.3-12.9-4.8-16.5-10.5
		c-22.3-34.8-25-73.2-9-109.6c10.4-23.8,20.6-45,13.1-71.4c-2.4-8.4-0.9-18-1.2-27c-0.7-18.6,7.1-26.6,26.8-26.9
		c18.5-0.3,37.4-3.6,52.8-15.9c13.2,0.3,18.9-10.3,26-18.4c24.7-28.4,45.3-59.8,66.3-90.8c28.9-42.8,63.8-78.6,111.8-100.1
		c6.3-3,11.9-8.6,19.8-5.2c1.5,1.4,2.6,3,3.3,4.9c1.3,4,1,8.1,0.2,12.2c-0.7,4-3.8,7.1-4,11c3.8-7.5,5.7-16,9.3-23.8
		c2.9-7.4,4.3-15.4,8.7-22.2c13.2-23.1,23.8-47.5,34-72c12.1-29.2,27.1-56.7,44.8-82.8c8.5-7.2,16-15.6,27.1-20.8
		c-10.8,2.8-17.5,13.9-29.4,11.5c-8.1-5.8-5-13.3-2.3-20.1C785.5,968.7,786.9,956.2,785.4,943.2z"/>
	<path class="st15" d="M1676.4,1014.1c0.3-43.7-10-91.8-42.4-133.7c-14.4-18.7-31.7-33.9-51.3-45.7c-10.7-6.5-10.6-11.7-7-21
		c2.2-5.8,3.5-12,4.4-18.2c1.1-7.7,4.6-10,12.6-9.8c99,2.3,199.6,94.8,213.6,192.7c15.7,109.7-28.3,195-101.2,271.3
		c-56.8,59.5-129.2,85.5-206.4,102.6c-20.4,4.5-41,8.2-61.7,11.7c-10.5,1.8-13.3-1.2-12.6-13.6c1.4-25.2,16.6-30.6,37-36.2
		C1591.4,1278.6,1681.2,1155.8,1676.4,1014.1z"/>
	<path class="st2" d="M995.4,1553.8c12.7-5,25-11.3,38.2-14.7c64.4-16.5,125,44.1,108.7,108.3c-1.5,5.9-4.1,12.2-8,16.7
		c-5.3,6.2-12.4,14.7-20.7,11.6c-10.7-4.1-1-13.2-0.3-19.6c1.5-13.3,3.9-26.2-1.5-39.1c-8.8-21.1-21.9-38.3-46-41.1
		c-23.1-2.7-39.6,9.4-50.6,29.8c-1.5-1.7-2.6-2.4-2.9-3.4c-2.6-8.2,6-20.8-4.1-24.5c-10.8-3.9-18.8,7.4-25.7,14.7
		c-35.4,37.6-35.7,89.1-1.5,128.7c26.8,31,76.8,34.8,116.7,8.2c34.9-23.3,62.6-52.7,79.3-92.2c18.3-43.1,33.9-87,46.1-132.1
		c4.2-15.6,9.9-18.9,25-9.4c21.7,13.7,44.8,25.7,68.4,35.8c17.1,7.3,17.7,16.1,12.7,32c-8.7,27.9-13.9,56.8-14.8,86.3
		c-1.4,43.5,17.8,73.3,57,91.2c6.6,3,14.6,4.3,18.3,14c-20.1,3.5-39.6-0.4-57.9-4.9c-60.3-14.6-117.5-3.8-174.8,14.9
		c-36.4,11.9-73.5,19.8-112.6,20.9c-85.3,2.4-136.7-75.8-116.3-143.5c0.8-2.6,0.8-5.5,1.1-8.3C938.5,1597.1,962,1571.4,995.4,1553.8
		z"/>
	<path class="st16" d="M1297.3,660.2c0.2,3.2,0.4,6.4,0.6,9.6c2.6-47.4,34.3-78.5,61.7-111.6c7.6-9.2,13.9-19.1,19.8-29.3
		c10.4-17.9,13.8-33.4-3.3-51.8c-18.4-19.8-22.1-49.3-38.7-71.2c-2.4-3.1-3.5-8.3,1.3-10.9c6-3.2,12.3-2.8,17.5,1.9
		c7.3,6.6,12.7,14.8,17.1,23.6c1.8,3.6,3.1,8.5,8,8.6c6,0.1,7.9-5.4,9.3-9.9c7.5-23.2,5.5-46.7,0.7-70.1c-1.1-5.5-3.3-10.7-4.3-16.1
		c-0.9-5.1,0.8-10.8,5.1-12.7c5.7-2.6,7.8,4.1,11.1,7.3c10.3,7.7,8.3,20.9,13.7,30.9c0.2,10.8,0.6,21.7,1,32.5
		c-0.9-11.4-0.1-22.8-1.1-34.2c-4.5-13.5-10.6-26.7-6.8-41.5c5.5-12.1,11.5-14.7,17.2-0.4c3.8,9.7,6.6,19.9,9.9,29.8
		c6.1,13.4,4.3,28.2,6.6,40.9c0.6-11.4-5.4-24.1,0.3-36.8c5.7-6.1,12.6-9.2,15.5,1.2c14.5,53.3,22,106.3-14.7,154.8
		c-19.3,39.6-34.1,81.4-54.8,115.6c2.8-2.3,5.8-10.6,13-14.9c3.7-2.2,8.1-4.1,11.5-0.9c3.8,3.6,4.5,8.3-0.4,12.2
		c-10.1,41.2-35.9,72.6-64.1,102.5c-8.6,9.1-19.3,15.2-31.8,11.5c-51.4-15.3-103-30.3-142.9-69.5c-8.3-8.2-12.8-14.5-4.4-26.4
		c12.2-17.3,17-37.9,18-59.2c9.2-6.2,15,0.9,21.5,5.5c1.4,1.4,2.6,3,3.8,4.6c16,15.3,35.7,25.7,53.4,38.8c8.3,6.2,17,12,24.1,19.7
		C1297.5,648.2,1294,655.4,1297.3,660.2z"/>
	<path class="st17" d="M1353.7,1557.3c26.3,13,49.5,25,73.2,35.9c55.7,25.8,111.5,49.2,174.5,54.8c74.3,6.6,134.6-22,192.3-62.5
		c6.4-4.5,11.3-15.3,20.8-7.3c7.9,6.6,3.5,16,0.3,23.3c-14.3,32.2-39.7,54.1-70.8,68.1c-79.4,35.7-159,30-237.5-3.8
		c-49.6-21.3-96.9-46.6-136.7-83.9C1363.4,1576.2,1355.8,1570.9,1353.7,1557.3z"/>
	<path class="st18" d="M1300.6,911.6c-13,10.3-20.9,6.3-31.6-6.1c-30.8-35.8-74.3-48.8-118.7-54.4c-41.2-5.2-83.2-9.7-124.9-2.2
		c-17,4.5-24.9-3.9-27.5-19.5c6.6-14.3,21.4-14.2,33.4-18.1c9.8-3.2,4.8-6.2,2-10.3c63.7-8.4,124.6,2.7,184.2,24.9
		c19.8,7.4,37.8,17.8,54.5,30.5C1290.2,870.3,1300.6,888.2,1300.6,911.6z"/>
	<path class="st19" d="M1814.9,557.5c-1,39.9-12.9,67.9-40.5,87.6c-31.9,22.8-75.4,14.7-98.1-17.2c-6.4-9-8.4-19-7-29.8
		c1.1-8.4,1.2-19.2,11.1-20.3c12-1.4,7.1,11.1,9.1,17.1c9.9,30.4,44.9,38.6,68,15.4c31.8-31.9,23.9-93.7-15-119.6
		c-7-4.7-21.1-8-16.4-17.7c4.5-9.5,18-4.7,27-1.9C1779.6,479,1819.4,516.9,1814.9,557.5z"/>
	<path class="st20" d="M1108.3,529.2c3.1-1.2,6.3-2.3,9.4-3.5c14.2-2.5,27.2-9.9,41.9-10c15.7-0.1,30.7,1.4,38.5,18.1
		c0.2,7.5-4.7,13-7.6,19.2c-0.8,0.6-1.6,1.2-2.4,1.7c-2.7,0.2-4.3-12.1-8.2-0.2c-4.6,14.2-10.5,27.9-15.9,41.9
		c-8.5-4.8-10.9,4-14.2,7.6c-14.6,15.6-32.1,20.8-52.7,17.2c-7.2-24-2.3-48.5-3.1-72.8C1093.8,539.7,1101.7,534.3,1108.3,529.2z"/>
	<path class="st21" d="M1171.5,399.1c2.3-10.7-1.6-20.5-4.9-30.3c-10.7-32.6-7.4-43.5,19.8-63.3c3.3-2.4,6.8-4.8,10.2-7.1
		c2.5-5.6,4.3-13,12.9-8.8c7.8,3.8,17.7,6.2,18.7,17.3c0.7,7.6,0.2,15.2,0.2,22.8c-2.1,6.6-8,6.3-13.2,7.4
		c-4.5,0.9-9.7-0.6-14.4,4.1c6.5,7.9,19.5,6.9,24.2,16.8c2.5,5.8,2.4,11.8,1.3,17.8c-2.2,13.8-5.7,27.5-4.8,41.6
		c-1.3,2.7-2.5,5.4-3.8,8c-4.6,14.5-12.8,18.2-26.3,9.8c-7.1-4.4-14.6-8.1-20.1-14.6C1167.9,413.4,1165.6,406.1,1171.5,399.1z"/>
	<path class="st22" d="M260.7,1440.5c36.4-10.3,67-33.3,101.9-46.9c3.8-1.5,7-4.6,11.6-3.5l-0.3-0.3c-11.6,17.9-20.1,36.9-21.1,58.6
		c-30.9,15.7-61.9,31.2-92.6,47.2c-12.1,6.3-17.9,5-16.4-10.1C245.4,1468.8,236.5,1448.5,260.7,1440.5z"/>
	<path class="st23" d="M1033.3,801c6,1,12.1,2,21.5,3.6c-17.4,14.8-38.5,14-55,23.2c-10.4,9.2-24.2,10-36.2,15.2
		c-18.9,2.6-23.2,14-18.5,30.8c-16.3,18.5-49.3,12.8-57.1-9.8c-2.4-7,3.9-9.6,6.4-14.1c21.7-6.6,39.7-21,61.1-28.8
		C980.8,811.6,1006.5,804.4,1033.3,801z"/>
	<path class="st24" d="M1570.8,731.4c-7.2-10.6-18.3-17.9-20.9-32.7c-3.2-18.8,6.1-40.9,23.8-49.1c9.3-4.3,15.8-2.1,21.3,5.6
		C1587,680.5,1578.9,706,1570.8,731.4z"/>
	<path class="st25" d="M1414.3,616.9c0.2-8,0-16.8-10.6-6.9c-8.6,8-15.9,17.4-25.3,25.4c27.6-40.8,35-91.7,66.5-130.6
		c-3,36.2-11,71.2-24.6,104.9C1419,612.8,1418.9,616.7,1414.3,616.9z"/>
	<path class="st26" d="M1469.7,1520.3c-27.1-5.6-53.5-13.1-77-28.7c-11.3-7.5-20.8-18.2-35.3-20.4c-8-1.2-8.2-8-9.3-14
		C1390.2,1475.3,1429.4,1498.8,1469.7,1520.3z"/>
	<path class="st27" d="M1218.1,1406.7c-16.8-7-33.6-14-50.5-21.1c-3.5-6-16.8-9.7-4.7-19.4c24.6,9.1,50.1,16.2,71.5,32.4
		C1231.4,1406.1,1225.8,1408.5,1218.1,1406.7z"/>
	<path class="st28" d="M995.4,1553.8c-27.7,22.3-50.8,48.3-66.5,80.6c-1.2-3.7-1.3-7.9-5.6-9.8c12.7-25.4,24.7-51.2,47.2-70
		c5.5,1.9,11-1.9,16.5-0.2C989.8,1554.2,992.6,1554,995.4,1553.8z"/>
	<path class="st29" d="M1309.7,781.1c-20.2,38.7-33.8,42.5-65.7,18.7C1265,790.1,1286.7,784.6,1309.7,781.1z"/>
	<path class="st30" d="M1258.4,1334.4c-11.7,32.3-11.7,32.3-39.2,22.3c-8.7-3.2-18.6-4.3-26.8-14.5
		C1214.4,1335.9,1236,1341.5,1258.4,1334.4z"/>
	<path class="st31" d="M1108.5,1457.5c14.8-4.7,26.5-0.5,37.9,2.7c15.3,4.2,30.3,9.5,45.2,14.8c3.4,1.2,8.7,3.1,6.5,8.6
		c-2,4.9-6.5,8.4-11.6,5.3C1163.1,1474.4,1134.3,1473.3,1108.5,1457.5z"/>
	<path class="st32" d="M1222.1,357c-8.5-3-17.1-5.8-25.6-9c-3.7-1.5-8.6-3.1-7.3-8.5c1.1-4.7,5.7-6.1,9.8-6.4
		c9-0.8,18.1-0.9,27.1-1.4c1.7-1.7,3.4-1.6,4.9,0.3c7.4,7.5-2.5,14-1.2,21.1C1228,355.7,1225.4,357,1222.1,357z"/>
	<path class="st33" d="M1163,1366.2c-5.8,8.2,6.5,12.2,4.7,19.4c-14.2-5.4-28.4-10.8-42.6-16.2c-3.7-5.1-9.2-9.8-3.6-16.9
		C1135.3,1357.2,1149.1,1361.7,1163,1366.2z"/>
	<path class="st34" d="M1221.4,417.4c-14.6-5.3-14.8-5.6-3.2-14.9c4.6-3.7,2.5-6.6,0.9-10.4c-2.2-5.3-2.3-10.6,2.7-14.7
		c7.1-4.9,14-4,20.7,0.9c0.6,2.6,1.3,5.1,1.9,7.7C1223.4,386.6,1230,407.6,1221.4,417.4z"/>
	<path class="st35" d="M1231,331.9c-1.6-0.1-3.3-0.2-4.9-0.3c0-7.5,1-15.1-0.3-22.3c-2.7-15-16.5-19.8-29.2-11
		c-3.4-11-15-6.6-21.7-11.6c3.1-5.4,9.7-0.7,13.2-4.7c17.9-1.4,31.5,9.2,46.4,16.4C1227.8,309,1231.3,320.6,1231,331.9z"/>
	<path class="st36" d="M1218.1,1406.7c5.5-2.7,10.9-5.4,16.4-8.1c11.1,3.1,20.7,8.9,29.9,15.7
		C1246.6,1426.2,1232.8,1413.9,1218.1,1406.7z"/>
	<path class="st37" d="M1767.1,1381.8c-21.6-2.2-33-18.3-45.3-33.2C1741.7,1353.1,1756.6,1364.4,1767.1,1381.8z"/>
	<path class="st38" d="M1444.1,348.8c-3.4,18.7,8,37.5-1.9,56.4c-1.7-20.2-3.3-40.3-5-60.5C1439.5,346,1441.8,347.4,1444.1,348.8z"
		/>
	<path class="st39" d="M1456.2,705.3c3.7-11.1,11.8-19.4,18.3-28.7c9.3,1.8,5.4,7.7,4,12.8c-4.2,8.4-8.4,16.9-12.6,25.3
		C1464,710.2,1460.9,707,1456.2,705.3z"/>
	<path class="st40" d="M1242.5,378.3c-6.9-0.3-13.8-0.6-20.7-0.9c0.1-6.8,0.2-13.6,0.3-20.4c1.7-3,4.4-4.1,7.8-4
		C1234.1,361.4,1238.3,369.9,1242.5,378.3z"/>
	<path class="st41" d="M1121.4,1352.6c1.2,5.6,2.4,11.3,3.6,16.9c-13.3-0.7-20.5-7.2-20.5-20.9
		C1111,1346.2,1116.1,1350.3,1121.4,1352.6z"/>
	<path class="st42" d="M1415.2,357.3c-3.9-9.9-7.9-19.8-11.8-29.7c2.3-4.1,4.5-8.2,6.8-12.4c2.8,14.1,5.5,28.2,8.3,42.3
		C1417.2,359.3,1416.2,359.2,1415.2,357.3z"/>
	<path class="st43" d="M1208.9,583.9c-6.6-2.7-13.3-5.5-19.9-8.2c-0.3-7-0.7-14-1-21l0.5,0.9l1.1-0.2c13.4,2.2,16.7,13.8,22,23.5
		C1211.4,581,1210.5,582.7,1208.9,583.9z"/>
	<path class="st44" d="M792.8,1249.2c9.3-14,18-19.9,30.7-25.8C817.6,1237.1,808.5,1242.7,792.8,1249.2z"/>
	<path class="st45" d="M1297.3,660.2c-2.5-4.7-5-9.4-7.6-14c-3.8-4.9-9.4-8.6-10.6-15.3c0.7-3.8,2.4-7,5.9-9
		c7.2,5,3.5,16.6,12.5,20.5C1297.5,648.4,1297.4,654.3,1297.3,660.2z"/>
	<path class="st46" d="M987,1554.3c-5.4,4.7-10.9,10.8-16.5,0.2c4.1-4.4,8.2-8.8,12.3-13.2C984.3,1545.7,985.7,1550,987,1554.3z"/>
	<path class="st47" d="M634.3,806.5c-44.9,23-89.8,46.1-134.8,69.1c-6.1,3.1-11.9,7.2-19.3,6.8c-3.2,1.6-6.7,1.7-10.1,2.2
		c-5.4,0.9-9.9-1-11.7-6.1c-2.7-7.3,4.6-6.8,8.1-9.3c11.7-8.6,27.1-10.7,37.5-21.5c30.5-22.1,64.9-37.5,97.1-56.7
		C672,749,735.3,697.1,796.2,642c4.6-4.1,9.8-8.1,10.8-14.9c4.8-2,7-10.8,13.2-7.3c5.5,3.1,2.8,9.9,1.8,15.1
		c-5,26.2-7.2,53.8-32.7,70.5c-37.2,39.4-82.6,67.2-129.6,93C651.4,802.8,642.4,802.8,634.3,806.5z"/>
	<path class="st48" d="M618.9,361.9c-32.2,46.7-79.7,70.8-131.5,88.2C521.7,406.7,567.4,380.2,618.9,361.9z"/>
	<path class="st49" d="M504,847.8c-8.3,18.4-31.5,15.2-42.7,29.7c4.8,7.1,12.6,3.6,19,5c-40.7,22-82.5,41.3-126.9,55
		c-2.4-5.8,3.9-11.8-0.2-17.6C403.4,895.8,453.7,871.8,504,847.8z"/>
	<path class="st50" d="M424.5,535.8c24.5-47,70.5-63.3,115.4-81C508.5,491.6,468,515.6,424.5,535.8z"/>
	<path class="st51" d="M1223.7,269.1c-2.1,2.9-5.1,6-8.3,3.1c-24.2-21.1-52.3-20.7-81.4-15.8c-3-5.2-8.6-2.9-12.8-4.4
		c41.7-17.7,77.1-14.6,98.6,8C1222.4,262.9,1223.3,265.7,1223.7,269.1z"/>
	<path class="st52" d="M471.3,697.7c11-21.3,22.1-42.6,33.1-63.8c1.6,0.8,3.1,1.6,4.7,2.4c-10.1,22.4-20.9,44.5-34.4,65.2
		C473.5,700.2,472.4,698.9,471.3,697.7z"/>
	<path class="st53" d="M492.9,706.3c7.4-18.5,18.6-34.7,30.5-50.4c-6.6,19.5-14.8,38.2-27.3,54.6C495.1,709.1,494,707.7,492.9,706.3
		z"/>
	<path class="st54" d="M461.2,663.2c6.6-9.6,13.3-19.3,20-28.9c-1.5,13-5.6,24.8-14.3,34.5C465,666.9,463.1,665.1,461.2,663.2z"/>
	<path class="st55" d="M852.8,672.1c11.4-5.2,15.6-16.4,21.4-28.4c9,10.4,13.8,21.8,22.3,30.6c7.5,7.8,14.5,17.7-1.5,26.1
		c-6.9,3.6-3.8,12.6-5.1,19.2c-2.2,0-4.3-2.2-5.6-1.9c-3.6,0.7-0.1,2.5,0.3,3.5c4.8,15.1,18,26.4,19,43.1c-6,3.5-12.1,6.9-17.9,10.7
		c-16.3,10.3-43.5,6.1-42.3,38.9c0.7,20.4-14,39.4-8.5,62.5c3.3,13.8-2.1,29.7-3.6,44.7c-11.7-8.1-14.7-20.5-16.9-33.4
		c-3.4-21.7-3.1-43.5-4.1-65.3c-0.1-13.8,5.4-25.7,12.7-37c13.3-9.3,22.6-20.1,13.8-37.5C844.6,723.2,849.9,697.9,852.8,672.1z"/>
	<path class="st56" d="M382.5,953.5c40-20.7,79.6-41.9,120.1-61.6c12.9-6.3,24.2-16.5,39.3-18.4c5.7,6.8,16.6,30.8,16.9,37.5
		c-50.3,29.5-100.8,58.4-155.5,79.3C391,981.1,379.8,971.3,382.5,953.5z"/>
	<path class="st57" d="M520.8,969c46.4-27.5,92.9-54.9,139.3-82.4c21.3,12.3,24,20.4,12.1,36.7c-42.4,30.7-86.5,58.8-133.6,81.8
		C512.7,992.3,509.5,985.9,520.8,969z"/>
	<path class="st58" d="M512.4,1142.3c48.2-29.2,99-53.8,146.1-85c7.5-5,13.6-11.5,21.3-16.1c14.7-3.7,11.4,5.2,9.4,13.3
		c-6.9,44.1-44.7,58.4-76.3,78.4c-16.3,10.3-33.3,19.6-49.9,29.3c-7.4-9.8-16.6-15.4-29.6-14.4
		C526.1,1148.4,518.2,1148.7,512.4,1142.3z"/>
	<path class="st59" d="M520.8,969c-4.8,10-5.2,18.2,6.8,24c4.5,2.2,7.4,8,11,12.1c-39.3,24.8-80.5,46.1-123,64.8
		c-26.9-4.6-32-11.4-25.2-33.7c27.3-19.1,59.3-28.9,87.8-45.7C491.9,982.5,506.5,976.1,520.8,969z"/>
	<path class="st60" d="M503.8,1061.4c43.4-25.1,86.9-50.2,130.3-75.3c7.1,10.6,9.3,23.5,15.8,34.4c-40.1,31-84.5,55-129,78.7
		C511.7,1088.2,502.4,1077.2,503.8,1061.4z"/>
	<path class="st61" d="M785.4,943.2c17.2,10.6,2.2,23.3,2,35c-0.2,7.3-10.3,14.2-1,22.2c5.3,2.6,7,6.3,3.6,11.6
		c-29,41.5-46.5,88.7-67.5,134.2c-3.4,7.5-5.4,15.9-12.4,21.4c-12.1-2.8-7.1-10.5-5-17.4c14.5-63.5,26.9-127.7,63.6-183.4
		C774,958.7,779.8,951,785.4,943.2z"/>
	<path class="st62" d="M344.4,1275.4c-2.5-0.8-6-3.1-7.5-2.2c-24.2,14.5-28.1,2.1-25.9-19c0.4-4.2-0.4-8.3-4.2-11.2
		c43.7-23.1,88.7-43.2,133.9-63.2c5.7-2.1,5.8,1.5,4.5,5.1c-2,5.7-7.8,7.6-11.9,11.2c-4.5,4-11.9,7.3-10.5,14.2
		c1.3,6.3,9,5.1,14.1,6.7c4.9,1.5,11.7,0.3,12.5,8.2C415.6,1244.5,380.5,1261,344.4,1275.4z"/>
	<path class="st63" d="M449.4,1225.3c-3.1-1-6.3-2.9-9.5-3c-9.8-0.3-22.5-0.3-24.5-10.2c-2.1-10.1,9.4-16.8,17.5-22.8
		c3.4-2.6,12.4-0.2,7.7-9.4c21.9-16.3,48.3-24.2,71.8-37.5c10.5,0,21,0.6,31.5-0.1c14.9-1,20.5,5.9,19,20
		c-33.8,12.8-60.1,38.9-93.3,53C462.7,1218.2,456.1,1221.9,449.4,1225.3z"/>
	<path class="st64" d="M403,1287.2c38.7-24.2,81.4-41,120.4-67.4c-13.1,48.2-37.8,83.8-86.6,97.8c-11.1-0.1-18.9,8.2-28.8,11.2
		c-8.9,2.7-18.7,6.4-25.2-1.8c-7.4-9.3,1-18.2,4.8-26.8C390.5,1293.5,400.2,1294.4,403,1287.2z"/>
	<path class="st65" d="M672.1,1191.8c-60.6,27.8-98.1,78.6-133.2,132.3c-15.6,23.9-34.1,45.9-52.3,67.9c-4.6,5.6-10.7,17.8-21.4,5.6
		c32.8-37.9,55.2-81.7,73-128.2c2.9-7.6,5.2-16,12.2-21.5c11.6,6.7,20.8,4.3,27.5-7.4c22.2-26,49.1-44.9,82-54.9
		C665.3,1185.3,671,1184.1,672.1,1191.8z"/>
	<path class="st66" d="M605.9,836.1c12.1-8.6,24.3-17.2,36.4-25.8c26.2-20.3,54.8-36.3,85.1-49.7c19.9,4.7,23,9.6,16.5,25.9
		c-33,27.9-66.9,54.6-104.8,75.9C627.4,854.4,619,842.3,605.9,836.1z"/>
	<path class="st67" d="M382.5,953.5c2.7,14.6,16.1,23.3,20.8,36.8c-26.9,17.5-57.3,27.1-86.7,39.2c-19.6-3.3-24.9-19.6-31.5-34.7
		C316.3,978,349.3,965.4,382.5,953.5z"/>
	<path class="st68" d="M672.2,923.3c12.8-17.8-7.9-24.5-12.1-36.7c12.7-14.3,30.8-20.9,45.9-31.9c21.8-15.9,43.8-31.5,65.7-49.2
		c-4.1,17.7-7.9,35.5-12.5,53.1c-3.8,14.8-19.2,17.2-29.1,25.4C712.1,899,693.2,912.7,672.2,923.3z"/>
	<path class="st69" d="M1151.4,957.2c-45.1,28.4-78.2,69.1-112.4,108.8c-13.9,16.2-28.9,31.8-50.1,43.6c1-9.7,1.7-17,2.4-24.3
		c28.5-27.7,47.4-62.6,71.4-93.7c25.7-7.8,45.3-25.9,67.7-39.4c6.3-3.8,13.3-8.5,21.4-3.6C1153.6,951.7,1152.9,954.5,1151.4,957.2z"
		/>
	<path class="st70" d="M403,1287.2c-4,10.1-13.3,16.8-16.9,27.6c-3.4,10.1-0.7,12.6,8.6,12.3c9.9-0.3,19.1-3,27.3-8.4
		c5-3.2,9.4-6.1,14.7-1c-35.2,20.6-71.3,39.3-109,54.7c-25-8.3-32.4-25.8-17.6-41.5C339.9,1313.8,371.3,1300.2,403,1287.2z"/>
	<path class="st71" d="M649.8,1020.5c-15.1-7-16-20.4-15.8-34.4c36.2-23.1,72.4-46.2,110.9-70.8C735.6,974,689.8,994.6,649.8,1020.5
		z"/>
	<path class="st72" d="M605.9,836.1c19.7-2.2,25.8,12.8,33.2,26.2c-25.1,19-52.5,34.2-80.3,48.7c-4.9-12.8-22.1-20.1-16.9-37.5
		C561.4,858,584.2,848,605.9,836.1z"/>
	<path class="st73" d="M672.1,1191.8c-3.3-4.1-7.8-3-12.1-3.3c-35.1,5.9-61.9,23.9-80.2,54.5c-9.9,19.3-17.1,20.4-29.3,4.8
		c28.7-53.7,74.4-83.6,133.2-95.2c3.3-0.6,6.9-1.2,9.3,2.3c7,11,8.7,21.2-4.4,29.1C683.1,1186.7,677.6,1189.3,672.1,1191.8z"/>
	<path class="st74" d="M310.1,1330.8c-11.3,21.1,5.5,30.3,17.6,41.5c-26.5,13.3-53,26.7-84.3,42.5c0-19.1,0-33.9,0-48.7
		c0-5.2,1.4-8.7,7.2-10.9C270.6,1347.5,290.3,1339,310.1,1330.8z"/>
	<path class="st75" d="M390.4,1036.2c-4.8,21.1,13.6,24.9,25.2,33.7c-22.8,13-46.7,23.7-71.1,33.4c-14.5-9.9-16.1-25.1-16.8-40.7
		C348.4,1053.2,368.1,1041.6,390.4,1036.2z"/>
	<path class="st76" d="M285.1,994.8c13.1,9.3,17.4,26.5,31.5,34.7c-19.1,8.7-38.2,17.5-57.5,25.9c-5.3,2.3-11.4,6.4-16.1-1.3
		c0.1-1.4,0.4-2.8,0.4-4.1C244,1007.9,244,1007.9,285.1,994.8z"/>
	<path class="st77" d="M503.8,1061.4c5.5,12.7,15.3,23.4,17.1,37.8c-17.4,7.5-31.1,22.1-50.3,26.1c-1.3-14.4-12.2-26.9-8.5-42.3
		C475.6,1075.1,488.6,1066.1,503.8,1061.4z"/>
	<path class="st78" d="M1150.3,949c-14,3.1-26.7,10.3-36.5,19.6c-14.8,14.1-30.7,22.9-51.2,23.1c10.8-21.1,28.9-35.7,46.1-51.1
		c8.2-10.5,20.3-12.7,32.3-14.9c7.7,3.1,14.7,7.2,19.2,14.6C1160.5,947.3,1155.9,948.8,1150.3,949z"/>
	<path class="st79" d="M726.5,764.3c-23.3,10.2-45,23.3-65.5,38.3c-5.6,4.1-11.4,7.7-18.7,7.7c-2.7-1.3-5.3-2.5-8-3.7
		c14.8-8.5,29.2-17.8,44.5-25.3c37-18.1,68.2-44.2,99.7-70.1c3.1-2.5,7.1-3.8,10.8-5.7c-3,4.5-6,9.1-9.2,14
		c4.9,8.1,20.3-3.6,20.9,9.6c0.4,9.9-6,18.1-15.9,22.2c-2.7-7.5-4.6-13.5-15.6-8.2C755.1,749.9,741.5,758.6,726.5,764.3z"/>
	<path class="st80" d="M327.8,1062.6c5.6,13.6,11.2,27.1,16.8,40.7c-13.3-0.3-19.7,15.6-33.5,14c-7-12.6-14-25.2-21-37.8
		C301.9,1072.4,314.2,1066,327.8,1062.6z"/>
	<path class="st81" d="M726.5,764.3c13.4-16.8,34.5-21,51.8-31.4c3.1-1.9,7-2.4,9.3,0.8c4.5,6.3-2.5,11.4-2.5,17.3
		c-14.2,11.3-24.2,27.4-41.2,35.3C746.5,772.5,740.7,765.1,726.5,764.3z"/>
	<path class="st82" d="M374.2,1390.1c24.5-19,53.7-29.3,83.3-47.3c-5.4,17.8-13,31.3-27.2,33.8c-19.1,3.4-37.3,10.3-56.4,13.1
		C374,1389.8,374.2,1390.1,374.2,1390.1z"/>
	<path class="st11" d="M836.4,747.8c8.1,1.2,13,4.4,9.4,13.9c-4.3,11.4-5.4,25.6-23.2,23.7C826.4,772.5,829.3,759.4,836.4,747.8z"/>
	<path class="st83" d="M688.6,1184.1c6.2-9,2.8-19.4,4.4-29.1c5,0.7,8.6-2,12.1-4.9c2.5,5.6-1.5,13,5,17.4
		c-2.9,7.2-5.8,14.3-8.7,21.5c-4,2.8-8,3.2-12,0C689.2,1187.4,688.9,1185.8,688.6,1184.1z"/>
	<path class="st84" d="M810,822.3c4.5,5,7.8,9,6.3,17.7c-2.8,15.5-1.6,31.7-2.2,47.6C807.1,866.2,803.2,844.6,810,822.3z"/>
	<path class="st85" d="M1142.5,928.3c-11.3,4.1-22.5,8.2-33.8,12.3c0-2.8,0-5.5,0-8.3c10.1-7.2,22.4-8.3,33.6-12.4
		c3.1-2.6,7.4-2.7,8.2,0.7C1152,926.1,1148.4,929.1,1142.5,928.3z"/>
	<path class="st86" d="M689.1,1054.6c-0.4-6.4-0.7-12.8-9.4-13.3c3.8-5.7,8.3-10.5,16.6-12.4C698.3,1039,693.7,1046.8,689.1,1054.6z
		"/>
	<path class="st87" d="M1082.9,587.6c-13.4,11.9-27.8,19-45.5,9.1c-9.1-4.9-9.1-13-7.5-21.5c1.6-8.8,1.9-17.8,2-26.7
		c0.1-17.8-7.8-30.5-24.2-37.2c-9.1-3.7-17.1-8.7-24.1-15.5c-23.7-40.5-59.3-66.8-101.8-84.8c-12.1-7.6-13.2-16.4-3.1-26.6
		c41.1-9.5,78.8-1.6,108,28.7c33.7,35.1,65,72.6,92.1,113.2c4.6,6.9,7.7,14.4,7.3,20.2c-0.3-1.9-2.4-6.8,3.9-9.4
		C1100,557,1097.8,572.9,1082.9,587.6z"/>
	<path class="st88" d="M1088.2,538.2c-0.5,4.1-0.9,8.2-1.7,14.5c-9.5-24.8-24.4-43-40.3-61c-18.7-21.2-35-44.5-53.3-66
		c-30.4-35.6-70.9-43.4-115.1-39.7c-5.8,5.6-12.4,6.8-18.8,1.8c-4.8-3.8-1.7-7,2.4-9.3c60.6-22.3,105.2-10.5,146,40.3
		c28.5,35.5,61.1,68.1,79.6,110.8C1090.2,532.2,1090.4,535.1,1088.2,538.2z"/>
	<path class="st89" d="M983.6,495.7c9.7,3.6,19.5,6.8,29,11c22.9,10.2,31.1,32.5,23.4,66.1c-2,8.6-3.1,16.1,1.5,23.8
		c-25.6-4.3-70.3-49.5-74.8-75.6c-1.3-7.3-0.1-12.8,9-12.3C981,509.3,987,506.9,983.6,495.7z"/>
	<path class="st90" d="M953.4,676.5c-56.1-21.2-72-69-79.5-121.8c-1.5-10.2-0.2-20.8,1.3-31.9c16.2,55,35,108.4,82.1,145.5
		C960.3,673,961.1,676.8,953.4,676.5z"/>
	<path class="st91" d="M705.5,378.1c-37.1,15.6-65.3,42.8-92.5,71.3c-5,3.1-8.5,3.2-8.1-4.2c20.5-26.2,42.7-50.5,71.1-68.5
		c8-5,15.7-8.4,25.2-6.6C703.9,372.2,708.3,373.3,705.5,378.1z"/>
	<path class="st92" d="M1198.1,537.3c-12.8-18.1-30.3-18.6-50-14.7c-9.9,2-19.3,12.2-30.4,3.2c8.4-6.1,17.7-10.2,27.3-14.3
		c31.7-13.5,69.2,3.8,72.4,51C1202,560.9,1201,548.4,1198.1,537.3z"/>
	<path class="st93" d="M961.3,839.5c12.2-6.1,24.7-10.9,38.5-11.8c5,11.3,10.6,21.8,25.6,21c-14.5,7.6-30.8,9-46.4,12.7
		C966,859.9,959.9,852.7,961.3,839.5z"/>
	<path class="st94" d="M604.9,445.3c1.6,3.5,4.7,4.2,8.1,4.2c-26.2,32.2-50.7,66-81.9,94.1C555.4,510.5,573.9,473.3,604.9,445.3z"/>
	<path class="st95" d="M1285.1,621.9c-1.2,2.7-2.4,5.4-3.6,8c-22.8-15.4-46.4-29.4-70.5-42.5c-0.5-1.3-1.2-2.4-2-3.5
		c0.4-1.4,0.9-2.8,1.3-4.2c2.4-2.4,5-2.6,7.8-0.6C1246.3,584.1,1271.6,593.7,1285.1,621.9z"/>
	<path class="st96" d="M961.3,839.5c3.8,9,10.9,15.3,17.7,22c-9.9,8.1-23.3,6.2-33.9,12.3c-9.1-4.9-9.5-12.2-6.5-21
		C942.4,841.6,950.9,839.2,961.3,839.5z"/>
	<path class="st97" d="M861.5,378.6c0.5,13.4,11.6,3.4,16.3,7.4c-2.7,8.9-1.8,17.3,4,24.8c-18.6-5.7-37.2-11.4-58.8-18
		C837,385,848.5,380.1,861.5,378.6z"/>
	<path class="st98" d="M1088.2,538.2c-0.3-2.8-0.7-5.7-1.1-8.5c7.1,1.3,14.2,1.9,21.1-0.5c-15.1,29.3-9.6,61.1-11.2,92
		c-12.7-7.9,2.7-27.6-14.2-33.7C1088.8,571.6,1099.1,556,1088.2,538.2z"/>
	<path class="st99" d="M1218,579.2c-2.6,0.2-5.2,0.4-7.8,0.6c-6.9-8.1-13.7-16.1-20.6-24.2c-0.9-7.8-3.4-16.4,8.5-18.3
		c9,6.4,9.6,19.3,19.2,25.2C1221.6,567.9,1222.9,573.4,1218,579.2z"/>
	<path class="st100" d="M903.5,764.3c-11.4-18.8-24.9-36.5-30-59.6c11.7,0,9.9,11.6,16.3,14.9c3.9,14.7,13.1,26.8,20,40
		C916,771.7,907.5,765.3,903.5,764.3z"/>
	<path class="st101" d="M748.5,366.3c25.8-7,52-6.4,78.3-2.1c-24.1,11.1-50,3.2-74.9,6.1C747.9,371.5,746.8,370.1,748.5,366.3z"/>
	<path class="st102" d="M1124.3,380.7c-14.9-8.7-21.9-20.2-20.3-36.4c0.5-5.5,3.8-9.6,9.4-8.9c6.8,0.8,6.4,5.1,4.2,10.7
		C1112.9,358.1,1125.9,367.4,1124.3,380.7z"/>
	<path class="st103" d="M1150.3,949c2.9-2.7,5.8-5.5,8.7-8.2c2.8-9.1,11.9-4.2,17.2-7.8c8.9,1.3,19.3-4.7,27.4,6.2
		c-19.5,1.6-36.1,9.1-52.2,18C1151,954.5,1150.6,951.7,1150.3,949z"/>
	<path class="st104" d="M1036.6,412.9c19.6-6,35.9-10.3,49.5-21.5C1081.1,410.3,1059.3,421.1,1036.6,412.9z"/>
	<path class="st105" d="M1176.2,933c-5.7,2.6-11.4,5.2-17.2,7.8c-6-3.6-13.7-4.8-16.5-12.5c2.9-2.9,10.6-5.8-0.2-8.4
		c7.3-6.1,13.9-6.5,17.3,3.7C1162.5,932.1,1169.6,931.8,1176.2,933z"/>
	<path class="st106" d="M953.4,676.5c3.4-1.8,3.9-4.9,4-8.3c13.7,4.8,27.3,9.5,45.2,15.8C982.8,685.6,967.4,686.4,953.4,676.5z"/>
	<path class="st107" d="M748.5,366.3c1.2,1.3,2.3,2.7,3.5,4c-14.7,7.1-31.3,3.3-46.5,7.8c-1.4-2.6-2.8-5.3-4.3-8
		C717.3,373.1,732.5,364.8,748.5,366.3z"/>
	<path class="st108" d="M1188.1,282c-3.2,4.8-8.9,2.9-13.2,4.7c-11.7-1.8-22.8,6.9-35.9,1.6C1155.1,278,1171.9,282.1,1188.1,282z"/>
	<path class="st109" d="M1171.5,399.1c-0.1,7.2-0.3,14.3-0.4,21.5c-7.1-4.6-14.2-10.3-12.7-19.2
		C1159.2,397.2,1166.9,399.6,1171.5,399.1z"/>
	<path class="st110" d="M1478.5,689.4c-1.3-4.3,0.8-9.6-4-12.8c4.9-19.6,21.1-32.2,33.5-47.7C1498.2,649,1488.3,669.2,1478.5,689.4z
		"/>
	<path class="st111" d="M790,1011.9c-1.2-3.9-2.4-7.7-3.6-11.6c9.7-8.8,20.4-15.5,37.9-19.2C813.6,997,799.8,1002.2,790,1011.9z"/>
	<path class="st112" d="M689.5,1189.1c4,0,8,0,12,0c-4.7,10.2-9.4,20.4-15.7,34.1C682.2,1208.2,688.9,1199,689.5,1189.1z"/>
	<path class="st113" d="M1714.1,856.4c52.8,38.6,77.2,90.3,71.1,155.8c-4.9,3.8,0.3,15.8-10.7,14.2c-8.1-1.2-9.4-8.3-11.3-15.3
		c-1.8-6.6,0.6-13.8-3.5-19.9c-6.9-50.3-31.4-91.2-67.1-126.1C1693.6,847.1,1703.6,851.2,1714.1,856.4z"/>
	<path class="st114" d="M1714.1,856.4c-9.1-1.7-17.6-2.2-21.6,8.7c-23.5-21.5-50.9-37.7-76.3-57.2
		C1652.9,815.7,1687.3,828.2,1714.1,856.4z"/>
	<path class="st115" d="M1759.7,991.3c6.3,4.7,3.4,12.8,6.9,18.7c2.6,4.5,1.7,11.8,8.3,12.9c7.4,1.2,4.6-9.2,10.3-10.7
		c2.5,26.7-9.5,49.5-19.2,78.4C1757.7,1053.9,1760.2,1022.5,1759.7,991.3z"/>
	<path class="st116" d="M1210.9,587.4c27.6,7.4,52.3,19.7,70.5,42.5c2.8,5.4,5.5,10.8,8.3,16.2c-23.4-15.8-46.9-31.6-70.2-47.5
		C1215.6,596,1211.9,592.7,1210.9,587.4z"/>
	<path class="st117" d="M1415.2,357.3c1,0.5,2.1,0.6,3.2,0.2c2,13.3,4.6,26.5-3.2,39.9C1415.2,384,1415.2,370.7,1415.2,357.3z"/>
	<path class="st118" d="M579.8,1243.1c0.6-25.8,21.5-34.8,39.4-44.1c12-6.3,23.2-23.5,40.8-10.4
		C630.1,1202.1,602.8,1219.3,579.8,1243.1z"/>
</g>
</svg>
